Mertz-Light.ufo
<glyph name="numbersign" format="1">
  <advance width="1134"/>
  <unicode hex="0023"/>
  <outline>
    <contour>
      <point x="1039" y="731" type="line"/>
      <point x="1039" y="824" type="line"/>
      <point x="164" y="824" type="line"/>
      <point x="164" y="731" type="line"/>
    </contour>
    <contour>
      <point x="989" y="420" type="line"/>
      <point x="989" y="513" type="line"/>
      <point x="114" y="513" type="line"/>
      <point x="114" y="420" type="line"/>
    </contour>
    <contour>
      <point x="875" y="1241" type="line"/>
      <point x="527" y="0" type="line"/>
      <point x="645" y="0" type="line"/>
      <point x="995" y="1241" type="line"/>
    </contour>
    <contour>
      <point x="495" y="1241" type="line"/>
      <point x="147" y="0" type="line"/>
      <point x="265" y="0" type="line"/>
      <point x="615" y="1241" type="line"/>
    </contour>
  </outline>
</glyph>
<glyph name="parenright" format="1">
  <advance width="586"/>
  <unicode hex="0029"/>
  <outline>
    <contour>
      <point x="387" y="653" type="curve" smooth="yes"/>
      <point x="387" y="396"/>
      <point x="340" y="164"/>
      <point x="246" y="-35" type="curve"/>
      <point x="118" y="-35" type="line"/>
      <point x="211" y="173"/>
      <point x="252" y="420"/>
      <point x="252" y="653" type="curve" smooth="yes"/>
      <point x="252" y="886"/>
      <point x="211" y="1133"/>
      <point x="118" y="1341" type="curve"/>
      <point x="246" y="1341" type="line"/>
      <point x="340" y="1142"/>
      <point x="387" y="910"/>
    </contour>
  </outline>
</glyph>
<glyph name="asterisk" format="1">
  <advance width="1307"/>
  <unicode hex="002A"/>
  <outline>
    <contour>
      <point x="756" y="481" type="line"/>
      <point x="841" y="559" type="line"/>
      <point x="602" y="826" type="line"/>
      <point x="928" y="943" type="line"/>
      <point x="886" y="1048" type="line"/>
      <point x="577" y="895" type="line"/>
      <point x="607" y="1242" type="line"/>
      <point x="476" y="1242" type="line"/>
      <point x="507" y="895" type="line"/>
      <point x="199" y="1048" type="line"/>
      <point x="157" y="943" type="line"/>
      <point x="483" y="826" type="line"/>
      <point x="244" y="559" type="line"/>
      <point x="329" y="481" type="line"/>
      <point x="542" y="780" type="line"/>
    </contour>
  </outline>
</glyph>
<glyph name="plus" format="1">
  <advance width="1009"/>
  <unicode hex="002B"/>
  <outline>
    <contour>
      <point x="543" y="559" type="line"/>
      <point x="767" y="559" type="line"/>
      <point x="767" y="652" type="line"/>
      <point x="543" y="652" type="line"/>
      <point x="543" y="876" type="line"/>
      <point x="450" y="876" type="line"/>
      <point x="450" y="652" type="line"/>
      <point x="227" y="652" type="line"/>
      <point x="227" y="559" type="line"/>
      <point x="450" y="559" type="line"/>
      <point x="450" y="336" type="line"/>
      <point x="543" y="336" type="line"/>
    </contour>
  </outline>
</glyph>
<glyph name="slash" format="1">
  <advance width="0"/>
  <unicode hex="002F"/>
  <outline>
    <contour>
      <point x="695" y="1241" type="line"/>
      <point x="137.0" y="0.0" type="line"/>
      <point x="255" y="0" type="line"/>
      <point x="815" y="1241" type="line"/>
    </contour>
  </outline>
</glyph>
<glyph name="zero" format="1">
  <advance width="1239"/>
  <unicode hex="0030"/>
  <outline>
    <contour>
      <point x="620" y="73" type="curve" smooth="yes"/>
      <point x="377" y="73"/>
      <point x="231" y="222"/>
      <point x="231" y="619" type="curve" smooth="yes"/>
      <point x="231" y="1011"/>
      <point x="377" y="1167"/>
      <point x="620" y="1167" type="curve" smooth="yes"/>
      <point x="863" y="1167"/>
      <point x="1008" y="1011"/>
      <point x="1008" y="619" type="curve" smooth="yes"/>
      <point x="1008" y="222"/>
      <point x="863" y="73"/>
    </contour>
    <contour>
      <point x="620" y="-34" type="curve" smooth="yes"/>
      <point x="938" y="-34"/>
      <point x="1138" y="179"/>
      <point x="1138" y="619" type="curve" smooth="yes"/>
      <point x="1138" y="1081"/>
      <point x="944" y="1274"/>
      <point x="620" y="1274" type="curve" smooth="yes"/>
      <point x="296" y="1274"/>
      <point x="101" y="1081"/>
      <point x="101" y="619" type="curve" smooth="yes"/>
      <point x="101" y="179"/>
      <point x="302" y="-34"/>
    </contour>
  </outline>
</glyph>
<glyph name="one" format="1">
  <advance width="591"/>
  <unicode hex="0031"/>
  <outline>
    <contour>
      <point x="302.0" y="0.0" type="line"/>
      <point x="430" y="0" type="line"/>
      <point x="430" y="1258" type="line"/>
      <point x="430" y="1258"/>
      <point x="257" y="1128"/>
      <point x="53" y="1046" type="curve"/>
      <point x="53" y="943" type="line"/>
      <point x="126" y="965"/>
      <point x="221" y="1006"/>
      <point x="302" y="1057" type="curve"/>
    </contour>
  </outline>
</glyph>
<glyph name="five" format="1">
  <advance width="973"/>
  <unicode hex="0035"/>
  <outline>
    <contour>
      <point x="462" y="-34" type="curve" smooth="yes"/>
      <point x="703" y="-34"/>
      <point x="879" y="98"/>
      <point x="879" y="362" type="curve" smooth="yes"/>
      <point x="879" y="600"/>
      <point x="694" y="743"/>
      <point x="503" y="743" type="curve" smooth="yes"/>
      <point x="442" y="743"/>
      <point x="362" y="733"/>
      <point x="302" y="692" type="curve"/>
      <point x="306" y="814"/>
      <point x="319" y="1001"/>
      <point x="324" y="1122" type="curve"/>
      <point x="772" y="1122" type="line"/>
      <point x="783" y="1241" type="line"/>
      <point x="221" y="1241" type="line"/>
      <point x="191" y="581" type="line"/>
      <point x="294" y="564" type="line"/>
      <point x="341" y="623"/>
      <point x="418" y="640"/>
      <point x="489" y="640" type="curve" smooth="yes"/>
      <point x="653" y="640"/>
      <point x="760" y="499"/>
      <point x="760" y="355" type="curve" smooth="yes"/>
      <point x="760" y="182"/>
      <point x="645" y="73"/>
      <point x="465" y="73" type="curve" smooth="yes"/>
      <point x="325" y="73"/>
      <point x="216" y="141"/>
      <point x="169" y="182" type="curve"/>
      <point x="136" y="81" type="line"/>
      <point x="201" y="13"/>
      <point x="335" y="-34"/>
    </contour>
  </outline>
</glyph>
<glyph name="eight" format="1">
  <advance width="1176"/>
  <unicode hex="0038"/>
  <outline>
    <contour>
      <point x="602" y="-34" type="curve" smooth="yes"/>
      <point x="809" y="-34"/>
      <point x="977" y="86"/>
      <point x="977" y="302" type="curve" smooth="yes"/>
      <point x="977" y="432"/>
      <point x="909" y="577"/>
      <point x="690" y="664" type="curve"/>
      <point x="898" y="741"/>
      <point x="951" y="854"/>
      <point x="951" y="975" type="curve"/>
      <point x="951" y="1129"/>
      <point x="833" y="1275"/>
      <point x="596" y="1275" type="curve" smooth="yes"/>
      <point x="378" y="1275"/>
      <point x="255" y="1129"/>
      <point x="255" y="970" type="curve" smooth="yes"/>
      <point x="255" y="846"/>
      <point x="351" y="729"/>
      <point x="492" y="657" type="curve"/>
      <point x="332" y="569"/>
      <point x="232" y="422"/>
      <point x="232" y="281" type="curve" smooth="yes"/>
      <point x="232" y="75"/>
      <point x="422" y="-34"/>
    </contour>
    <contour>
      <point x="570" y="710" type="curve"/>
      <point x="434" y="764"/>
      <point x="373" y="865"/>
      <point x="373" y="973" type="curve"/>
      <point x="373" y="1093"/>
      <point x="469" y="1173"/>
      <point x="596" y="1173" type="curve" smooth="yes"/>
      <point x="724" y="1173"/>
      <point x="834" y="1092"/>
      <point x="834" y="972" type="curve" smooth="yes"/>
      <point x="834" y="864"/>
      <point x="773" y="791"/>
    </contour>
    <contour>
      <point x="596" y="70" type="curve" smooth="yes"/>
      <point x="473" y="70"/>
      <point x="362" y="148"/>
      <point x="362" y="293" type="curve" smooth="yes"/>
      <point x="362" y="435"/>
      <point x="444" y="551"/>
      <point x="591" y="605" type="curve"/>
      <point x="761" y="543"/>
      <point x="857" y="434"/>
      <point x="857" y="301" type="curve" smooth="yes"/>
      <point x="857" y="148"/>
      <point x="732" y="70"/>
    </contour>
  </outline>
</glyph>
<glyph name="equal" format="1">
  <advance width="1259"/>
  <unicode hex="003D"/>
  <outline>
    <contour>
      <point x="880" y="410" type="line"/>
      <point x="880" y="503" type="line"/>
      <point x="270" y="503" type="line"/>
      <point x="270" y="410" type="line"/>
    </contour>
    <contour>
      <point x="880" y="647" type="line"/>
      <point x="880" y="740" type="line"/>
      <point x="270.0" y="740.0" type="line"/>
      <point x="270.0" y="647.0" type="line"/>
    </contour>
  </outline>
</glyph>
<glyph name="greater" format="1">
  <advance width="912"/>
  <unicode hex="003E"/>
  <outline>
    <contour>
      <point x="884" y="402" type="line"/>
      <point x="28" y="804" type="line"/>
      <point x="28" y="677" type="line"/>
      <point x="645" y="403" type="line"/>
      <point x="28" y="118" type="line"/>
      <point x="28" y="-12" type="line"/>
    </contour>
  </outline>
</glyph>
<glyph name="at" format="1">
  <advance width="1384"/>
  <unicode hex="0040"/>
  <outline>
    <contour>
      <point x="53" y="119"/>
      <point x="359" y="-99"/>
      <point x="701" y="-99" type="curve" smooth="yes"/>
      <point x="828" y="-99"/>
      <point x="951" y="-49"/>
      <point x="1041" y="4" type="curve"/>
      <point x="1041" y="102" type="line"/>
      <point x="953" y="50"/>
      <point x="832" y="-1"/>
      <point x="709" y="-1" type="curve" smooth="yes"/>
      <point x="388" y="-1"/>
      <point x="161" y="186"/>
      <point x="161" y="517" type="curve"/>
      <point x="161" y="782"/>
      <point x="271" y="1065"/>
      <point x="760" y="1065" type="curve"/>
      <point x="1004" y="1065"/>
      <point x="1189" y="922"/>
      <point x="1189" y="603" type="curve"/>
      <point x="1189" y="391"/>
      <point x="1103" y="297"/>
      <point x="1003" y="297" type="curve"/>
      <point x="924" y="297"/>
      <point x="921" y="343"/>
      <point x="921" y="408" type="curve" smooth="yes"/>
      <point x="921" y="870" type="line" smooth="yes"/>
      <point x="815" y="894" type="line"/>
      <point x="367" y="894"/>
      <point x="351" y="581"/>
      <point x="351" y="477" type="curve" smooth="yes"/>
      <point x="351" y="352"/>
      <point x="456" y="202"/>
      <point x="591" y="202" type="curve" smooth="yes"/>
      <point x="638" y="202"/>
      <point x="744" y="205"/>
      <point x="817" y="338" type="curve"/>
      <point x="852" y="237"/>
      <point x="903" y="201"/>
      <point x="987" y="201" type="curve"/>
      <point x="1170" y="201"/>
      <point x="1301" y="331"/>
      <point x="1301" y="603" type="curve"/>
      <point x="1301" y="894"/>
      <point x="1153" y="1164"/>
      <point x="760" y="1164" type="curve"/>
      <point x="187" y="1164"/>
      <point x="53" y="822"/>
      <point x="53" y="517" type="curve"/>
    </contour>
    <contour>
      <point x="466" y="378"/>
      <point x="466" y="475" type="curve" smooth="yes"/>
      <point x="466" y="551"/>
      <point x="473" y="806"/>
      <point x="793" y="806" type="curve"/>
      <point x="793" y="405" type="line"/>
      <point x="754" y="350"/>
      <point x="695" y="297"/>
      <point x="610" y="297" type="curve" smooth="yes"/>
      <point x="526" y="297"/>
    </contour>
  </outline>
</glyph>
<glyph name="A" format="1">
  <advance width="1284"/>
  <unicode hex="0041"/>
  <outline>
    <contour>
      <point x="130" y="0" type="line"/>
      <point x="259" y="0" type="line"/>
      <point x="392" y="299" type="line"/>
      <point x="968" y="299" type="line"/>
      <point x="1115" y="0" type="line"/>
      <point x="1280" y="0" type="line"/>
      <point x="694" y="1259" type="line"/>
    </contour>
    <contour>
      <point x="431" y="392" type="line"/>
      <point x="693" y="1009" type="line"/>
      <point x="941" y="392" type="line"/>
    </contour>
  </outline>
</glyph>
<glyph name="B" format="1">
  <advance width="1116"/>
  <unicode hex="0042"/>
  <outline>
    <contour>
      <point x="534" y="60" type="line" smooth="yes"/>
      <point x="795.104187012" y="60"/>
      <point x="970.0" y="167.21005249"/>
      <point x="970.0" y="380.0" type="curve" smooth="yes"/>
      <point x="970.0" y="535.042724609"/>
      <point x="895.018615723" y="589.967407227"/>
      <point x="784.306945801" y="647.82019043" type="curve" smooth="yes"/>
      <point x="673.773132324" y="705.582092285" type="line"/>
      <point x="787.889404297" y="755.897460938" type="line" smooth="yes"/>
      <point x="854.522216797" y="785.277954102"/>
      <point x="903.0" y="832.56427002"/>
      <point x="903.0" y="920.0" type="curve" smooth="yes"/>
      <point x="903.0" y="1093.43664551"/>
      <point x="786.289978027" y="1181.0"/>
      <point x="504.0" y="1181.0" type="curve" smooth="yes"/>
      <point x="198.0" y="1181.0" type="line"/>
      <point x="198.0" y="60.0" type="line"/>
    </contour>
    <contour>
      <point x="378.0" y="134.0" type="line"/>
      <point x="378.0" y="657.0" type="line"/>
      <point x="515.0" y="657.0" type="line" smooth="yes"/>
      <point x="681.906311035" y="657.0"/>
      <point x="806.0" y="544.538024902"/>
      <point x="806.0" y="393.0" type="curve" smooth="yes"/>
      <point x="806.0" y="257.817718506"/>
      <point x="706.093933105" y="134.0"/>
      <point x="508.0" y="134.0" type="curve" smooth="yes"/>
    </contour>
    <contour>
      <point x="769.0" y="901.0" type="curve" smooth="yes"/>
      <point x="769.0" y="707.674621582"/>
      <point x="540.126953125" y="701.0"/>
      <point x="464.0" y="701.0" type="curve" smooth="yes"/>
      <point x="380.0" y="701.0" type="line"/>
      <point x="380.0" y="1108.0" type="line"/>
      <point x="479.0" y="1108.0" type="line" smooth="yes"/>
      <point x="657.30291748" y="1108.0"/>
      <point x="769.0" y="1047.95385742"/>
    </contour>
  </outline>
</glyph>
<glyph name="C" format="1">
  <advance width="1287"/>
  <unicode hex="0043"/>
  <outline>
    <contour>
      <point x="747" y="-34" type="curve"/>
      <point x="903" y="-34"/>
      <point x="1045" y="16"/>
      <point x="1108" y="46" type="curve"/>
      <point x="1108" y="163" type="line"/>
      <point x="1008" y="112"/>
      <point x="868" y="75"/>
      <point x="755" y="75" type="curve" smooth="yes"/>
      <point x="472" y="75"/>
      <point x="262" y="242"/>
      <point x="262" y="562" type="curve" smooth="yes"/>
      <point x="262" y="883"/>
      <point x="483" y="1050"/>
      <point x="748" y="1050" type="curve" smooth="yes"/>
      <point x="881" y="1050"/>
      <point x="1007" y="999"/>
      <point x="1108" y="947" type="curve"/>
      <point x="1108" y="1060" type="line"/>
      <point x="1049" y="1095"/>
      <point x="903" y="1155"/>
      <point x="747" y="1155" type="curve" smooth="yes"/>
      <point x="393" y="1155"/>
      <point x="132" y="932"/>
      <point x="132" y="562" type="curve" smooth="yes"/>
      <point x="132" y="193"/>
      <point x="387" y="-34"/>
    </contour>
  </outline>
</glyph>
<glyph name="D" format="1">
  <advance width="1402"/>
  <unicode hex="0044"/>
  <outline>
    <contour>
      <point x="654" y="60" type="line" smooth="yes"/>
      <point x="1037.72045898" y="60"/>
      <point x="1247.0" y="326.196777344"/>
      <point x="1247.0" y="626.0" type="curve" smooth="yes"/>
      <point x="1247.0" y="954.97052002"/>
      <point x="1055.22851562" y="1181.0"/>
      <point x="681.0" y="1181.0" type="curve" smooth="yes"/>
      <point x="198.0" y="1181.0" type="line"/>
      <point x="198.0" y="60.0" type="line"/>
    </contour>
    <contour>
      <point x="372.0" y="1073.0" type="line"/>
      <point x="660.0" y="1073.0" type="line" smooth="yes"/>
      <point x="926.919921875" y="1073.0"/>
      <point x="1060.29980469" y="843.485717773"/>
      <point x="1060.29980469" y="623.0" type="curve" smooth="yes"/>
      <point x="1060.29980469" y="363.957580566"/>
      <point x="914.966796875" y="169.0"/>
      <point x="619.0" y="169.0" type="curve" smooth="yes"/>
      <point x="372.0" y="169.0" type="line"/>
    </contour>
  </outline>
</glyph>
<glyph name="E" format="1">
  <advance width="973"/>
  <unicode hex="0045"/>
  <outline>
    <contour>
      <point x="198" y="0" type="line"/>
      <point x="928" y="0" type="line"/>
      <point x="928" y="106" type="line"/>
      <point x="324" y="106" type="line"/>
      <point x="324" y="588" type="line"/>
      <point x="855" y="588" type="line"/>
      <point x="855" y="694" type="line"/>
      <point x="326" y="694" type="line"/>
      <point x="326" y="1135" type="line"/>
      <point x="918" y="1135" type="line"/>
      <point x="918" y="1241" type="line"/>
      <point x="198" y="1241" type="line"/>
    </contour>
  </outline>
</glyph>
<glyph name="F" format="1">
  <advance width="931"/>
  <unicode hex="0046"/>
  <outline>
    <contour>
      <point x="198" y="60" type="line"/>
      <point x="370" y="60" type="line"/>
      <point x="370" y="555" type="line"/>
      <point x="735" y="555" type="line"/>
      <point x="735" y="687" type="line"/>
      <point x="372" y="687" type="line"/>
      <point x="372" y="1045" type="line"/>
      <point x="801" y="1045" type="line"/>
      <point x="801" y="1181" type="line"/>
      <point x="198" y="1181" type="line"/>
    </contour>
  </outline>
</glyph>
<glyph name="G" format="1">
  <advance width="1416"/>
  <unicode hex="0047"/>
  <outline>
    <contour>
      <point x="749" y="27" type="line"/>
      <point x="981.192565918" y="27"/>
      <point x="1129.89941406" y="83.7491912842"/>
      <point x="1246.0" y="150.154769897" type="curve"/>
      <point x="1246.0" y="656.999984741" type="line"/>
      <point x="809.0" y="656.999984741" type="line"/>
      <point x="809.0" y="537.999984741" type="line"/>
      <point x="1079.0" y="537.999984741" type="line"/>
      <point x="1079.0" y="232.580825806" type="line"/>
      <point x="1040.53088379" y="217.791168213" type="line" smooth="yes"/>
      <point x="957.595581055" y="185.904022217"/>
      <point x="868.231689453" y="167.999969482"/>
      <point x="780.0" y="167.999969482" type="curve" smooth="yes"/>
      <point x="547.874023438" y="167.999969482"/>
      <point x="324.0" y="302.497161865"/>
      <point x="324.0" y="621.999969482" type="curve" smooth="yes"/>
      <point x="324.0" y="946.426177979"/>
      <point x="571.210754395" y="1073.99996948"/>
      <point x="800.0" y="1073.99996948" type="curve" smooth="yes"/>
      <point x="913.435791016" y="1073.99996948"/>
      <point x="1028.50671387" y="1044.66867065"/>
      <point x="1130.0" y="993.422393799" type="curve"/>
      <point x="1130.0" y="1135.78390503" type="line"/>
      <point x="1068.35803223" y="1162.48422241"/>
      <point x="925.088256836" y="1214.99996948"/>
      <point x="769.0" y="1214.99996948" type="curve" smooth="yes"/>
      <point x="407.450592041" y="1214.99996948"/>
      <point x="134.0" y="989.370819092"/>
      <point x="134.0" y="621.999969482" type="curve" smooth="yes"/>
      <point x="134.0" y="253.115447998"/>
      <point x="389.455963135" y="26.9999847412"/>
      <point x="749.0" y="26.9999847412" type="curve"/>
    </contour>
  </outline>
</glyph>
<glyph name="H" format="1">
  <advance width="1313"/>
  <unicode hex="0048"/>
  <outline>
    <contour>
      <point x="1225" y="0" type="line"/>
      <point x="1225" y="1241" type="line"/>
      <point x="1097" y="1241" type="line"/>
      <point x="1097" y="713" type="line"/>
      <point x="331" y="713" type="line"/>
      <point x="331" y="1241" type="line"/>
      <point x="203" y="1241" type="line"/>
      <point x="203" y="0" type="line"/>
      <point x="331" y="0" type="line"/>
      <point x="331" y="603" type="line"/>
      <point x="1097" y="603" type="line"/>
      <point x="1097" y="0" type="line"/>
    </contour>
  </outline>
</glyph>
<glyph name="J" format="1">
  <advance width="988"/>
  <unicode hex="004A"/>
  <outline>
    <contour>
      <point x="797" y="492" type="line"/>
      <point x="797" y="1181" type="line"/>
      <point x="625" y="1181" type="line"/>
      <point x="625" y="505" type="line" smooth="yes"/>
      <point x="625" y="285.314971924"/>
      <point x="541.07989502" y="142.0"/>
      <point x="339.0" y="142.0" type="curve" smooth="yes"/>
      <point x="261.833984375" y="142.0"/>
      <point x="194.110702515" y="164.337936401"/>
      <point x="140.0" y="187.904937744" type="curve"/>
      <point x="140.0" y="72.8375396729" type="line"/>
      <point x="170.631027222" y="57.2095794678"/>
      <point x="241.980255127" y="29.9660797119"/>
      <point x="369.693695068" y="29.9660797119" type="curve" smooth="yes"/>
      <point x="666.861450195" y="29.9660797119"/>
      <point x="797.0" y="170.288009644"/>
      <point x="797.0" y="492.000015259" type="curve"/>
    </contour>
  </outline>
</glyph>
<glyph name="K" format="1">
  <advance width="1265"/>
  <unicode hex="004B"/>
  <outline>
    <contour>
      <point x="458.365081787" y="622.154602051" type="line"/>
      <point x="456.850311279" y="623.0" type="line"/>
      <point x="459.004211426" y="623.0" type="line"/>
    </contour>
    <contour>
      <point x="471.925567627" y="623.0" type="line"/>
      <point x="895.925537109" y="60.0" type="line"/>
      <point x="1109.42504883" y="60.0" type="line"/>
      <point x="669.057128906" y="634.619506836" type="line"/>
      <point x="1084.07861328" y="1181.0" type="line"/>
      <point x="880.856384277" y="1181.0" type="line"/>
      <point x="459.004211426" y="623.0" type="line"/>
    </contour>
    <contour>
      <point x="378.0" y="667.006774902" type="line"/>
      <point x="378.0" y="1182.0" type="line"/>
      <point x="198.0" y="1182.0" type="line"/>
      <point x="198.0" y="60.0" type="line"/>
      <point x="380.0" y="60.0" type="line"/>
      <point x="380.0" y="623.0" type="line"/>
      <point x="456.850311279" y="623.0" type="line"/>
    </contour>
  </outline>
</glyph>
<glyph name="M" format="1">
  <advance width="1651"/>
  <unicode hex="004D"/>
  <outline>
    <contour>
      <point x="323" y="1145" type="line"/>
      <point x="137" y="0" type="line"/>
      <point x="273" y="0" type="line"/>
      <point x="393" y="783" type="line"/>
      <point x="826" y="25" type="line"/>
      <point x="1259" y="783" type="line"/>
      <point x="1378" y="0" type="line"/>
      <point x="1514" y="0" type="line"/>
      <point x="1328" y="1145" type="line"/>
      <point x="826" y="269" type="line"/>
    </contour>
  </outline>
</glyph>
<glyph name="N" format="1">
  <advance width="1343"/>
  <unicode hex="004E"/>
  <outline>
    <contour>
      <point x="1143" y="-31" type="line"/>
      <point x="1143" y="1121" type="line"/>
      <point x="1015" y="1121" type="line"/>
      <point x="1015" y="275" type="line"/>
      <point x="198" y="1163" type="line"/>
      <point x="198" y="0" type="line"/>
      <point x="326" y="0" type="line"/>
      <point x="326" y="852" type="line"/>
    </contour>
  </outline>
</glyph>
<glyph name="O" format="1">
  <advance width="1499"/>
  <unicode hex="004F"/>
  <outline>
    <contour>
      <point x="797" y="1169" type="curve" smooth="yes"/>
      <point x="1082" y="1169"/>
      <point x="1335" y="998"/>
      <point x="1335" y="618" type="curve" smooth="yes"/>
      <point x="1335" y="242"/>
      <point x="1073" y="74"/>
      <point x="797" y="74" type="curve" smooth="yes"/>
      <point x="523" y="74"/>
      <point x="262" y="241"/>
      <point x="262" y="619" type="curve" smooth="yes"/>
      <point x="262" y="998"/>
      <point x="510" y="1169"/>
    </contour>
    <contour>
      <point x="798" y="-34" type="curve" smooth="yes"/>
      <point x="1136" y="-34"/>
      <point x="1465" y="182"/>
      <point x="1465" y="623" type="curve" smooth="yes"/>
      <point x="1465" y="1058"/>
      <point x="1136" y="1274"/>
      <point x="797" y="1274" type="curve" smooth="yes"/>
      <point x="460" y="1274"/>
      <point x="132" y="1058"/>
      <point x="132" y="619" type="curve" smooth="yes"/>
      <point x="132" y="182"/>
      <point x="460" y="-34"/>
    </contour>
  </outline>
</glyph>
<glyph name="P" format="1">
  <advance width="1063"/>
  <unicode hex="0050"/>
  <outline>
    <contour>
      <point x="326" y="474" type="line"/>
      <point x="487" y="474" type="line" smooth="yes"/>
      <point x="728" y="474"/>
      <point x="916" y="547"/>
      <point x="916" y="801" type="curve" smooth="yes"/>
      <point x="916" y="1018"/>
      <point x="750" y="1121"/>
      <point x="491" y="1121" type="curve" smooth="yes"/>
      <point x="198" y="1121" type="line"/>
      <point x="198" y="-1" type="line"/>
      <point x="326" y="-1" type="line"/>
    </contour>
    <contour>
      <point x="788" y="796" type="curve" smooth="yes"/>
      <point x="788" y="624"/>
      <point x="676" y="562"/>
      <point x="499" y="562" type="curve" smooth="yes"/>
      <point x="326" y="562" type="line"/>
      <point x="326" y="1032" type="line"/>
      <point x="495" y="1032" type="line" smooth="yes"/>
      <point x="712" y="1032"/>
      <point x="788" y="932"/>
    </contour>
  </outline>
</glyph>
<glyph name="Q" format="1">
  <advance width="1499"/>
  <unicode hex="0051"/>
  <outline>
    <contour>
      <point x="740.0" y="1050.0" type="curve" smooth="yes"/>
      <point x="1000.0" y="1050.0"/>
      <point x="1218.0" y="877.0"/>
      <point x="1218.0" y="559.0" type="curve" smooth="yes"/>
      <point x="1218.0" y="244.0"/>
      <point x="999.0" y="74.0"/>
      <point x="739.0" y="74.0" type="curve" smooth="yes"/>
      <point x="480.0" y="74.0"/>
      <point x="262.0" y="243.0"/>
      <point x="262.0" y="560.0" type="curve" smooth="yes"/>
      <point x="262.0" y="877.0"/>
      <point x="479.0" y="1050.0"/>
    </contour>
    <contour>
      <point x="739.0" y="-34.0" type="curve" smooth="yes"/>
      <point x="1046.0" y="-34.0"/>
      <point x="1346.0" y="162.0"/>
      <point x="1346.0" y="563.0" type="curve" smooth="yes"/>
      <point x="1346.0" y="959.0"/>
      <point x="1046.0" y="1155.0"/>
      <point x="738.0" y="1155.0" type="curve" smooth="yes"/>
      <point x="431.0" y="1155.0"/>
      <point x="132.0" y="959.0"/>
      <point x="132.0" y="560.0" type="curve" smooth="yes"/>
      <point x="132.0" y="162.0"/>
      <point x="431.0" y="-34.0"/>
    </contour>
  </outline>
</glyph>
<glyph name="R" format="1">
  <advance width="1155"/>
  <unicode hex="0052"/>
  <outline>
    <contour>
      <point x="380" y="582" type="line"/>
      <point x="474.008911133" y="582" type="line"/>
      <point x="824.008911133" y="60" type="line"/>
      <point x="1018.41516113" y="60" type="line"/>
      <point x="619.781311035" y="610.038146973" type="line"/>
      <point x="704.966003418" y="632.0859375" type="line" smooth="yes"/>
      <point x="851.384887695" y="669.980712891"/>
      <point x="916.0" y="768.617126465"/>
      <point x="916.0" y="878.0" type="curve" smooth="yes"/>
      <point x="916.0" y="1089.88903809"/>
      <point x="744.203491211" y="1182.0"/>
      <point x="504.0" y="1182.0" type="curve" smooth="yes"/>
      <point x="198.0" y="1182.0" type="line"/>
      <point x="198.0" y="60.0" type="line"/>
      <point x="380.0" y="60.0" type="line"/>
    </contour>
    <contour>
      <point x="752.0" y="873.0" type="curve" smooth="yes"/>
      <point x="752.0" y="715.16217041"/>
      <point x="604.48828125" y="615.0"/>
      <point x="462.0" y="615.0" type="curve" smooth="yes"/>
      <point x="378.0" y="615.0" type="line"/>
      <point x="378.0" y="1108.0" type="line"/>
      <point x="458.0" y="1108.0" type="line" smooth="yes"/>
      <point x="631.454589844" y="1108.0"/>
      <point x="752.0" y="1017.40270996"/>
    </contour>
  </outline>
</glyph>
<glyph name="S" format="1">
  <advance width="956"/>
  <unicode hex="0053"/>
  <outline>
    <contour>
      <point x="216" y="59" type="line"/>
      <point x="263" y="29"/>
      <point x="359" y="-35"/>
      <point x="531" y="-35" type="curve" smooth="yes"/>
      <point x="693" y="-35"/>
      <point x="849" y="53"/>
      <point x="849" y="252" type="curve" smooth="yes"/>
      <point x="849.0" y="358.018866246"/>
      <point x="805.903319474" y="449.05804459"/>
      <point x="652" y="552" type="curve" smooth="yes"/>
      <point x="429" y="701" type="line" smooth="yes"/>
      <point x="352" y="753"/>
      <point x="310" y="820"/>
      <point x="310" y="879" type="curve" smooth="yes"/>
      <point x="310" y="977"/>
      <point x="365" y="1050"/>
      <point x="527" y="1050" type="curve" smooth="yes"/>
      <point x="599" y="1050"/>
      <point x="715" y="1028"/>
      <point x="794" y="983" type="curve"/>
      <point x="794" y="1091" type="line"/>
      <point x="746" y="1115"/>
      <point x="646" y="1155"/>
      <point x="515" y="1155" type="curve" smooth="yes"/>
      <point x="299" y="1155"/>
      <point x="189" y="1016"/>
      <point x="189" y="863" type="curve" smooth="yes"/>
      <point x="189" y="778"/>
      <point x="259" y="680"/>
      <point x="360" y="613" type="curve" smooth="yes"/>
      <point x="593" y="459" type="line" smooth="yes"/>
      <point x="695" y="392"/>
      <point x="727" y="324"/>
      <point x="722" y="241" type="curve" smooth="yes"/>
      <point x="716" y="137"/>
      <point x="630" y="74"/>
      <point x="528" y="74" type="curve" smooth="yes"/>
      <point x="426" y="74"/>
      <point x="299" y="110"/>
      <point x="216" y="169" type="curve"/>
    </contour>
  </outline>
</glyph>
<glyph name="U" format="1">
  <advance width="1402"/>
  <unicode hex="0055"/>
  <outline>
    <contour>
      <point x="690" y="-33" type="curve" smooth="yes"/>
      <point x="1007" y="-33"/>
      <point x="1238" y="142"/>
      <point x="1238" y="493" type="curve" smooth="yes"/>
      <point x="1238" y="1241" type="line"/>
      <point x="1110" y="1241" type="line"/>
      <point x="1110" y="480" type="line" smooth="yes"/>
      <point x="1110" y="193"/>
      <point x="941" y="73"/>
      <point x="690" y="73" type="curve" smooth="yes"/>
      <point x="439" y="73"/>
      <point x="270" y="193"/>
      <point x="270" y="480" type="curve" smooth="yes"/>
      <point x="270" y="1241" type="line"/>
      <point x="142" y="1241" type="line"/>
      <point x="142" y="493" type="line" smooth="yes"/>
      <point x="142" y="142"/>
      <point x="373" y="-33"/>
    </contour>
  </outline>
</glyph>
<glyph name="V" format="1">
  <advance width="1263"/>
  <unicode hex="0056"/>
  <outline>
    <contour>
      <point x="290.191986084" y="1181" type="line"/>
      <point x="115.121307373" y="1181" type="line"/>
      <point x="638.973175049" y="83.4458007812" type="line"/>
      <point x="1143.39163208" y="1181.0" type="line"/>
      <point x="962.02243042" y="1181.0" type="line"/>
      <point x="639.135955811" y="404.939453125" type="line"/>
    </contour>
  </outline>
</glyph>
<glyph name="W" format="1">
  <advance width="1757"/>
  <unicode hex="0057"/>
  <outline>
    <contour>
      <point x="874.011352539" y="1163.5592041" type="line"/>
      <point x="576.263793945" y="470.232910156" type="line"/>
      <point x="279.054779053" y="1181.0" type="line"/>
      <point x="109.92010498" y="1181.0" type="line"/>
      <point x="562.239746094" y="92.919921875" type="line"/>
      <point x="880.599853516" y="798.884887695" type="line"/>
      <point x="1208.61962891" y="93.5000610352" type="line"/>
      <point x="1641.44299316" y="1181.00006104" type="line"/>
      <point x="1466.25244141" y="1181.00006104" type="line"/>
      <point x="1195.27990723" y="469.55279541" type="line"/>
    </contour>
  </outline>
</glyph>
<glyph name="Y" format="1">
  <advance width="1259"/>
  <unicode hex="0059"/>
  <outline>
    <contour>
      <point x="292.341796875" y="1181" type="line"/>
      <point x="123.389678955" y="1181" type="line"/>
      <point x="540.099609375" y="478.983032227" type="line"/>
      <point x="540.099609375" y="60.0" type="line"/>
      <point x="728.099609375" y="60.0" type="line"/>
      <point x="728.099609375" y="475.138977051" type="line"/>
      <point x="1131.59106445" y="1181.0" type="line"/>
      <point x="955.988037109" y="1181.0" type="line"/>
      <point x="637.03503418" y="583.382629395" type="line"/>
    </contour>
  </outline>
</glyph>
<glyph name="Z" format="1">
  <advance width="1059"/>
  <unicode hex="005A"/>
  <outline>
    <contour>
      <point x="150.36328125" y="1181" type="line"/>
      <point x="150.36328125" y="1033" type="line"/>
      <point x="638.230957031" y="1033" type="line"/>
      <point x="161.235839844" y="60" type="line"/>
      <point x="907.0" y="60" type="line"/>
      <point x="907.0" y="208" type="line"/>
      <point x="430.561126709" y="208" type="line"/>
      <point x="898.561157227" y="1181" type="line"/>
    </contour>
  </outline>
</glyph>
<glyph name="grave" format="1">
  <advance width="370"/>
  <unicode hex="0060"/>
  <outline>
    <contour>
      <point x="377" y="121" type="curve" smooth="yes"/>
      <point x="220" y="452" type="line" smooth="yes"/>
      <point x="186" y="524"/>
      <point x="137" y="553"/>
      <point x="95" y="553" type="curve" smooth="yes"/>
      <point x="44" y="553"/>
      <point x="0" y="511"/>
      <point x="0" y="454" type="curve" smooth="yes"/>
      <point x="0" y="422"/>
      <point x="15" y="385"/>
      <point x="49" y="348" type="curve" smooth="yes"/>
      <point x="308" y="70" type="line" smooth="yes"/>
      <point x="321" y="56"/>
      <point x="335" y="50"/>
      <point x="348" y="50" type="curve" smooth="yes"/>
      <point x="368" y="50"/>
      <point x="384" y="66"/>
      <point x="384" y="90" type="curve" smooth="yes"/>
      <point x="384" y="99"/>
      <point x="382" y="110"/>
    </contour>
  </outline>
</glyph>
<glyph name="a" format="1">
  <advance width="995"/>
  <unicode hex="0061"/>
  <outline>
    <contour>
      <point x="354.0" y="35.0" type="curve" smooth="yes"/>
      <point x="401.0" y="35.0"/>
      <point x="531.0" y="33.0"/>
      <point x="645.0" y="148.0" type="curve"/>
      <point x="645.0" y="148.0"/>
      <point x="704.0" y="41.0"/>
      <point x="796.0" y="41.0" type="curve" smooth="yes"/>
      <point x="805.0" y="41.0"/>
      <point x="823.0" y="41.0"/>
      <point x="832.0" y="41.0" type="curve"/>
      <point x="861.0" y="150.0" type="line"/>
      <point x="853.307851307" y="152.107437998"/>
      <point x="846.004315919" y="154.059430674"/>
      <point x="839.092903744" y="155.963615195" type="curve" smooth="yes"/>
      <point x="780.413658624" y="172.130515307"/>
      <point x="750.0" y="184.851239592"/>
      <point x="750.0" y="260.0" type="curve" smooth="yes"/>
      <point x="750.0" y="572.0" type="line" smooth="yes"/>
      <point x="750.0" y="760.0"/>
      <point x="604.0" y="840.0"/>
      <point x="461.0" y="840.0" type="curve" smooth="yes"/>
      <point x="325.0" y="840.0"/>
      <point x="221.0" y="795.0"/>
      <point x="168.0" y="765.0" type="curve"/>
      <point x="204.0" y="675.0" type="line"/>
      <point x="262.0" y="704.0"/>
      <point x="347.0" y="743.0"/>
      <point x="432.0" y="743.0" type="curve" smooth="yes"/>
      <point x="521.0" y="743.0"/>
      <point x="623.0" y="723.0"/>
      <point x="623.0" y="545.0" type="curve"/>
      <point x="623.0" y="505.0" type="line"/>
      <point x="455.0" y="467.0" type="line" smooth="yes"/>
      <point x="190" y="407"/>
      <point x="150.0" y="303.0"/>
      <point x="150.0" y="230.0" type="curve" smooth="yes"/>
      <point x="150.0" y="105.0"/>
      <point x="244.0" y="35.0"/>
    </contour>
    <contour>
      <point x="423.0" y="97.0" type="curve" smooth="yes"/>
      <point x="342.0" y="97.0"/>
      <point x="299.0" y="172.0"/>
      <point x="299.0" y="243.0" type="curve" smooth="yes"/>
      <point x="299.0" y="320.0"/>
      <point x="333.0" y="362.0"/>
      <point x="441.0" y="402.0" type="curve" smooth="yes"/>
      <point x="497.0" y="423.0"/>
      <point x="578.0" y="432.0"/>
      <point x="622.0" y="444.0" type="curve"/>
      <point x="622.0" y="193.0" type="line"/>
      <point x="577.0" y="145.0"/>
      <point x="502.0" y="97.0"/>
    </contour>
  </outline>
</glyph>
<glyph name="b" format="1">
  <advance width="1113"/>
  <unicode hex="0062"/>
  <outline>
    <contour>
      <point x="530" y="-16" type="curve" smooth="yes"/>
      <point x="816" y="-16"/>
      <point x="996" y="154"/>
      <point x="996" y="411" type="curve" smooth="yes"/>
      <point x="996" y="650"/>
      <point x="841" y="840"/>
      <point x="606" y="840" type="curve" smooth="yes"/>
      <point x="427" y="840"/>
      <point x="323" y="752"/>
      <point x="323" y="752" type="curve"/>
      <point x="323.0" y="1242.0" type="line"/>
      <point x="195.0" y="1220.0" type="line"/>
      <point x="195.0" y="43.0" type="line"/>
      <point x="320.0" y="4.0"/>
      <point x="435" y="-16"/>
    </contour>
    <contour>
      <point x="532" y="81" type="curve"/>
      <point x="436" y="81"/>
      <point x="362" y="99"/>
      <point x="323" y="108" type="curve"/>
      <point x="323" y="240"/>
      <point x="323.0" y="657.0"/>
      <point x="323.0" y="657.0" type="curve"/>
      <point x="323.0" y="657.0"/>
      <point x="467" y="742"/>
      <point x="592" y="742" type="curve" smooth="yes"/>
      <point x="796" y="742"/>
      <point x="869" y="569"/>
      <point x="869" y="402" type="curve" smooth="yes"/>
      <point x="869" y="191"/>
      <point x="724" y="81"/>
    </contour>
  </outline>
</glyph>
<glyph name="c" format="1">
  <advance width="966"/>
  <unicode hex="0063"/>
  <outline>
    <contour>
      <point x="143" y="413" type="curve" smooth="yes"/>
      <point x="143" y="163"/>
      <point x="319" y="-16"/>
      <point x="605" y="-16" type="curve" smooth="yes"/>
      <point x="718" y="-16"/>
      <point x="799" y="20"/>
      <point x="840" y="43" type="curve"/>
      <point x="840" y="146" type="line"/>
      <point x="814" y="132"/>
      <point x="721" y="81"/>
      <point x="598" y="81" type="curve" smooth="yes"/>
      <point x="367" y="81"/>
      <point x="263" y="235"/>
      <point x="263" y="414" type="curve" smooth="yes"/>
      <point x="263" y="583"/>
      <point x="378" y="742"/>
      <point x="604" y="742" type="curve" smooth="yes"/>
      <point x="747" y="742"/>
      <point x="829" y="694"/>
      <point x="840" y="688" type="curve"/>
      <point x="840" y="783" type="line"/>
      <point x="821" y="795"/>
      <point x="730" y="840"/>
      <point x="601" y="840" type="curve" smooth="yes"/>
      <point x="333" y="840"/>
      <point x="143" y="668"/>
    </contour>
  </outline>
</glyph>
<glyph name="d" format="1">
  <advance width="1099"/>
  <unicode hex="0064"/>
  <outline>
    <contour>
      <point x="710.197998047" y="700.609619141" type="curve" smooth="yes"/>
      <point x="745.0" y="684.504882812" type="line"/>
      <point x="745.0" y="143.906311035" type="line"/>
      <point x="692.971252441" y="136.932250977" type="line" smooth="yes"/>
      <point x="662.14630127" y="132.800338745"/>
      <point x="632.626831055" y="131.0"/>
      <point x="605.0" y="131.0" type="curve" smooth="yes"/>
      <point x="412.565032959" y="131.0"/>
      <point x="280.0" y="242.406280518"/>
      <point x="280.0" y="453.2734375" type="curve" smooth="yes"/>
      <point x="280.0" y="620.065856934"/>
      <point x="388.228057861" y="740.0"/>
      <point x="545.0" y="740.0" type="curve" smooth="yes"/>
      <point x="597.348144531" y="740.0"/>
      <point x="652.2109375" y="727.444580078"/>
    </contour>
    <contour>
      <point x="900.0" y="1268.66870117" type="line"/>
      <point x="745.0" y="1247.39367676" type="line"/>
      <point x="745.0" y="804.882019043" type="line"/>
      <point x="656.14654541" y="853.615844727" type="line" smooth="yes"/>
      <point x="592.669677734" y="888.432006836"/>
      <point x="529.298522949" y="904.0"/>
      <point x="472.0" y="904.0" type="curve" smooth="yes"/>
      <point x="284.688873291" y="904.0"/>
      <point x="130.0" y="747.025756836"/>
      <point x="130.0" y="535.279296875" type="curve" smooth="yes"/>
      <point x="130.0" y="251.245788574"/>
      <point x="276.011383057" y="99.9999847412"/>
      <point x="562.0" y="99.9999847412" type="curve" smooth="yes"/>
      <point x="657.613098145" y="99.9999847412"/>
      <point x="773.319396973" y="119.910766602"/>
      <point x="900.0" y="158.537567139" type="curve"/>
    </contour>
  </outline>
</glyph>
<glyph name="e" format="1">
  <advance width="1021"/>
  <unicode hex="0065"/>
  <outline>
    <contour>
      <point x="302.80871582" y="582.315429688" type="line" smooth="yes"/>
      <point x="333.73538208" y="691.770202637"/>
      <point x="433.613464355" y="761.0"/>
      <point x="545.0" y="761.0" type="curve" smooth="yes"/>
      <point x="644.291992188" y="761.0"/>
      <point x="735.03112793" y="699.102416992"/>
      <point x="750.551818848" y="573.3515625" type="curve" smooth="yes"/>
      <point x="758.866821289" y="506.0" type="line"/>
      <point x="281.24420166" y="506.0" type="line"/>
    </contour>
    <contour>
      <point x="290.349151611" y="376.365966797" type="line"/>
      <point x="274.70401001" y="449.0" type="line"/>
      <point x="858.000030518" y="449.0" type="line"/>
      <point x="858.000030518" y="455.702148438" type="line" smooth="yes"/>
      <point x="858.000030518" y="683.689147949"/>
      <point x="759.776397705" y="843.0"/>
      <point x="517.000030518" y="843.0" type="curve" smooth="yes"/>
      <point x="287.860321045" y="843.0"/>
      <point x="130.000030518" y="662.919494629"/>
      <point x="130.000030518" y="452.684570312" type="curve" smooth="yes"/>
      <point x="130.000030518" y="172.948242188"/>
      <point x="358.183502197" y="32.9999847412"/>
      <point x="600.000030518" y="32.9999847412" type="curve" smooth="yes"/>
      <point x="686.895721436" y="32.9999847412"/>
      <point x="772.813323975" y="53.8344573975"/>
      <point x="847.000030518" y="91.6712036133" type="curve"/>
      <point x="847.000030518" y="182.357925415" type="line"/>
      <point x="784.447784424" y="155.396148682"/>
      <point x="707.148284912" y="135.999984741"/>
      <point x="624.000030518" y="135.999984741" type="curve" smooth="yes"/>
      <point x="485.662445068" y="135.999984741"/>
      <point x="329.709869385" y="193.635452271"/>
      <point x="290.349182129" y="376.365951538" type="curve"/>
    </contour>
  </outline>
</glyph>
<glyph name="f" format="1">
  <advance width="767"/>
  <unicode hex="0066"/>
  <outline>
    <contour>
      <point x="399" y="112" type="line"/>
      <point x="399" y="758" type="line"/>
      <point x="555" y="758" type="line"/>
      <point x="555" y="884" type="line"/>
      <point x="399" y="884" type="line"/>
      <point x="399" y="952" type="line" smooth="yes"/>
      <point x="399" y="1013.66766357"/>
      <point x="399.963500977" y="1069.68579102"/>
      <point x="446.320983887" y="1106.67041016" type="curve" smooth="yes"/>
      <point x="479.152954102" y="1132.86425781"/>
      <point x="514.628173828" y="1132.0"/>
      <point x="541.0" y="1132.0" type="curve" smooth="yes"/>
      <point x="572.377929688" y="1132.0"/>
      <point x="606.250610352" y="1124.13671875"/>
      <point x="653.0" y="1104.25500488" type="curve"/>
      <point x="653.0" y="1244.61218262" type="line"/>
      <point x="599.461364746" y="1261.0625"/>
      <point x="551.661437988" y="1269.0"/>
      <point x="508.0" y="1269.0" type="curve" smooth="yes"/>
      <point x="330.051147461" y="1269.0"/>
      <point x="240.0" y="1142.31420898"/>
      <point x="240.0" y="952.0" type="curve" smooth="yes"/>
      <point x="240.0" y="884.0" type="line"/>
      <point x="125.0" y="884.0" type="line"/>
      <point x="125.0" y="783.0" type="line"/>
      <point x="243.0" y="783.0" type="line"/>
      <point x="243.0" y="112.0" type="line"/>
    </contour>
  </outline>
</glyph>
<glyph name="g" format="1">
  <advance width="1079"/>
  <unicode hex="0067"/>
  <outline>
    <contour>
      <point x="494.0" y="-8.0" type="curve" smooth="yes"/>
      <point x="570.30847168" y="-8"/>
      <point x="636.317993164" y="24.291015625"/>
      <point x="660.092407227" y="45.8768920898" type="curve" smooth="yes"/>
      <point x="732.355773926" y="111.487762451" type="line"/>
      <point x="758.271240234" y="17.3858642578" type="line" smooth="yes"/>
      <point x="764.569030762" y="-5.48284912109"/>
      <point x="769.0" y="-28.9177398682"/>
      <point x="769.0" y="-53.0" type="curve" smooth="yes"/>
      <point x="769.0" y="-203.378295898"/>
      <point x="629.865966797" y="-266.0"/>
      <point x="521.0" y="-266.0" type="curve" smooth="yes"/>
      <point x="428.077850342" y="-266.0"/>
      <point x="346.467681885" y="-237.90246582"/>
      <point x="290.0" y="-212.924743652" type="curve"/>
      <point x="290.0" y="-342.43862915" type="line"/>
      <point x="337.248077393" y="-361.716278076"/>
      <point x="427.682250977" y="-393.0"/>
      <point x="543.0" y="-393.0" type="curve" smooth="yes"/>
      <point x="718.628234863" y="-393.0"/>
      <point x="891.0" y="-312.40826416"/>
      <point x="891.0" y="-56.0" type="curve" smooth="yes"/>
      <point x="891.0" y="764.0" type="line"/>
      <point x="740.0" y="764.0" type="line"/>
      <point x="740.0" y="617.568054199" type="line"/>
      <point x="637.889831543" y="718.172790527" type="line" smooth="yes"/>
      <point x="601.887878418" y="753.644226074"/>
      <point x="529.936340332" y="781.0"/>
      <point x="494.0" y="781.0" type="curve" smooth="yes"/>
      <point x="303.166992188" y="781.0"/>
      <point x="129.0" y="616.808837891"/>
      <point x="129.0" y="400.6875" type="curve" smooth="yes"/>
      <point x="129.0" y="203.492034912"/>
      <point x="255.643432617" y="-8.0"/>
    </contour>
    <contour>
      <point x="289.0" y="456.750976562" type="curve" smooth="yes"/>
      <point x="289.0" y="619.728210449"/>
      <point x="417.379882812" y="722.0"/>
      <point x="543.0" y="722.0" type="curve" smooth="yes"/>
      <point x="593.382385254" y="722.0"/>
      <point x="675.584716797" y="710.923583984"/>
      <point x="723.265136719" y="653.183349609" type="curve" smooth="yes"/>
      <point x="737.0" y="636.550354004" type="line"/>
      <point x="737.0" y="226.030029297" type="line"/>
      <point x="695.312011719" y="212.669372559" type="line" smooth="yes"/>
      <point x="646.784118652" y="197.115982056"/>
      <point x="594.280029297" y="181.0"/>
      <point x="546.0" y="181.0" type="curve" smooth="yes"/>
      <point x="389.125732422" y="181.0"/>
      <point x="289.0" y="289.645263672"/>
    </contour>
  </outline>
</glyph>
<glyph name="h" format="1">
  <advance width="1181"/>
  <unicode hex="0068"/>
  <outline>
    <contour>
      <point x="360" y="120" type="line"/>
      <point x="360" y="655.320495605" type="line"/>
      <point x="366.587219238" y="668.193054199" type="line" smooth="yes"/>
      <point x="410.987426758" y="754.95892334"/>
      <point x="537.127868652" y="808.0"/>
      <point x="648.0" y="808.0" type="curve" smooth="yes"/>
      <point x="746.746459961" y="808.0"/>
      <point x="844.0" y="750.48223877"/>
      <point x="844.0" y="618.756835938" type="curve" smooth="yes"/>
      <point x="844.0" y="120.0" type="line"/>
      <point x="1006.0" y="120.0" type="line"/>
      <point x="1006.0" y="640.150390625" type="line" smooth="yes"/>
      <point x="1006.0" y="794.705078125"/>
      <point x="885.357116699" y="903.0"/>
      <point x="727.0" y="903.0" type="curve" smooth="yes"/>
      <point x="642.846130371" y="903.0"/>
      <point x="548.303100586" y="872.595458984"/>
      <point x="456.701171875" y="791.757263184" type="curve" smooth="yes"/>
      <point x="357.0" y="703.770446777" type="line"/>
      <point x="357.0" y="1268.78869629" type="line"/>
      <point x="198.0" y="1247.30200195" type="line"/>
      <point x="198.0" y="120.0" type="line"/>
    </contour>
  </outline>
</glyph>
<glyph name="i" format="1">
  <advance width="548"/>
  <unicode hex="0069"/>
  <outline>
    <contour>
      <point x="380.0" y="1186.0" type="curve" smooth="yes"/>
      <point x="380" y="1237.18371582"/>
      <point x="342.444976807" y="1291.0"/>
      <point x="272.0" y="1291.0" type="curve" smooth="yes"/>
      <point x="200.992584229" y="1291.0"/>
      <point x="163.0" y="1237.65478516"/>
      <point x="163.0" y="1186.0" type="curve" smooth="yes"/>
      <point x="163.0" y="1131.84838867"/>
      <point x="201.154632568" y="1081.0"/>
      <point x="272.0" y="1081.0" type="curve" smooth="yes"/>
      <point x="342.277648926" y="1081.0"/>
      <point x="380.0" y="1132.32373047"/>
    </contour>
    <contour>
      <point x="348.0" y="60.0" type="line"/>
      <point x="348.0" y="815.0" type="line"/>
      <point x="195.0" y="815.0" type="line"/>
      <point x="195.0" y="60.0" type="line"/>
    </contour>
  </outline>
</glyph>
<glyph name="j" format="1">
  <advance width="577"/>
  <unicode hex="006A"/>
  <outline>
    <contour>
      <point x="408.284179688" y="1185.0" type="curve" smooth="yes"/>
      <point x="408.284179688" y="1237.59606934"/>
      <point x="370.680175781" y="1288.0"/>
      <point x="299.284179688" y="1288.0" type="curve" smooth="yes"/>
      <point x="230.08795166" y="1288.0"/>
      <point x="189.284179688" y="1237.22338867"/>
      <point x="189.284179688" y="1185.0" type="curve" smooth="yes"/>
      <point x="189.284179688" y="1130.62451172"/>
      <point x="230.12638855" y="1079.0"/>
      <point x="299.284179688" y="1079.0" type="curve" smooth="yes"/>
      <point x="369.72857666" y="1079.0"/>
      <point x="408.284179688" y="1130.53662109"/>
    </contour>
    <contour>
      <point x="378.284179688" y="-79.0" type="curve" smooth="yes"/>
      <point x="378.284179688" y="764.0" type="line"/>
      <point x="221.284179688" y="764.0" type="line"/>
      <point x="221.284179688" y="-46.380859375" type="line" smooth="yes"/>
      <point x="221.284179688" y="-87.4787597656"/>
      <point x="225.018875122" y="-134.386688232"/>
      <point x="189.744628906" y="-175.16809082" type="curve" smooth="yes"/>
      <point x="155.213485718" y="-215.090377808"/>
      <point x="107.455291748" y="-220.119354248"/>
      <point x="54.4649505615" y="-222.831604004" type="curve"/>
      <point x="79.795135498" y="-345.07635498" type="line"/>
      <point x="346.434417725" y="-331.27355957"/>
      <point x="378.284179688" y="-182.345108032"/>
    </contour>
  </outline>
</glyph>
<glyph name="k" format="1">
  <advance width="1121"/>
  <unicode hex="006B"/>
  <outline>
    <contour>
      <point x="198" y="1248.15234375" type="line"/>
      <point x="198" y="121.0" type="line"/>
      <point x="353" y="121.0" type="line"/>
      <point x="353" y="1267.87963867" type="line"/>
    </contour>
    <contour>
      <point x="771.350646973" y="61.0" type="line"/>
      <point x="963.213623047" y="61.0" type="line"/>
      <point x="603.23046875" y="469.85824585" type="line"/>
      <point x="912.597045898" y="815.0" type="line"/>
      <point x="730.16217041" y="815.0" type="line"/>
      <point x="428.561462402" y="463.749450684" type="line"/>
    </contour>
  </outline>
</glyph>
<glyph name="l" format="1">
  <advance width="720"/>
  <unicode hex="006C"/>
  <outline>
    <contour>
      <point x="343.0" y="358.352539062" type="curve" smooth="yes"/>
      <point x="343" y="1268.66870117" type="line"/>
      <point x="188" y="1247.39367676" type="line"/>
      <point x="188" y="330.341796875" type="line" smooth="yes"/>
      <point x="188" y="172.149581909"/>
      <point x="298.761169434" y="96.0"/>
      <point x="424.0" y="96.0" type="curve" smooth="yes"/>
      <point x="502.937805176" y="96.0"/>
      <point x="558.569702148" y="112.693161011"/>
      <point x="592.0" y="125.998138428" type="curve"/>
      <point x="592.0" y="224.799835205" type="line"/>
      <point x="564.013305664" y="216.797607422"/>
      <point x="531.395202637" y="210.432617188"/>
      <point x="496.075195312" y="210.432617188" type="curve" smooth="yes"/>
      <point x="427.584655762" y="210.432617188"/>
      <point x="343.0" y="250.612411499"/>
    </contour>
  </outline>
</glyph>
<glyph name="m" format="1">
  <advance width="1633"/>
  <unicode hex="006D"/>
  <outline>
    <contour>
      <point x="338" y="52" type="line"/>
      <point x="338" y="600.731689453" type="line"/>
      <point x="350.093231201" y="616.769470215" type="line" smooth="yes"/>
      <point x="413.533233643" y="700.901672363"/>
      <point x="498.199371338" y="740.0"/>
      <point x="583.0" y="740.0" type="curve" smooth="yes"/>
      <point x="656.725646973" y="740.0"/>
      <point x="739.0" y="684.069885254"/>
      <point x="739.0" y="558.53125" type="curve" smooth="yes"/>
      <point x="739.0" y="52.0" type="line"/>
      <point x="891.0" y="52.0" type="line"/>
      <point x="891.0" y="607.055175781" type="line"/>
      <point x="906.316711426" y="624.147033691" type="line" smooth="yes"/>
      <point x="962.186157227" y="686.495605469"/>
      <point x="1054.76452637" y="740.0"/>
      <point x="1149.0" y="740.0" type="curve" smooth="yes"/>
      <point x="1265.77905273" y="740.0"/>
      <point x="1301.0" y="625.235900879"/>
      <point x="1301.0" y="547.841796875" type="curve" smooth="yes"/>
      <point x="1301.0" y="52.0" type="line"/>
      <point x="1456.0" y="52.0" type="line"/>
      <point x="1456.0" y="567.354492188" type="line" smooth="yes"/>
      <point x="1456.0" y="762.690856934"/>
      <point x="1333.55725098" y="842.0"/>
      <point x="1187.0" y="842.0" type="curve" smooth="yes"/>
      <point x="1152.4407959" y="842.0"/>
      <point x="1039.25976562" y="838.530822754"/>
      <point x="932.698730469" y="728.54888916" type="curve" smooth="yes"/>
      <point x="880.055603027" y="674.215637207" type="line"/>
      <point x="839.139709473" y="737.84967041" type="line" smooth="yes"/>
      <point x="798.148254395" y="801.601318359"/>
      <point x="752.251220703" y="841.0"/>
      <point x="661.0" y="841.0" type="curve" smooth="yes"/>
      <point x="614.223388672" y="841.0"/>
      <point x="512.970458984" y="834.461547852"/>
      <point x="441.3878479" y="747.203979492" type="curve" smooth="yes"/>
      <point x="335.0" y="617.519775391" type="line"/>
      <point x="335.0" y="824.0" type="line"/>
      <point x="183.0" y="824.0" type="line"/>
      <point x="183.0" y="52.0" type="line"/>
    </contour>
  </outline>
</glyph>
<glyph name="n" format="1">
  <advance width="1166"/>
  <unicode hex="006E"/>
  <outline>
    <contour>
      <point x="344" y="60" type="line"/>
      <point x="344" y="595.320495605" type="line"/>
      <point x="350.587219238" y="608.193054199" type="line" smooth="yes"/>
      <point x="394.987426758" y="694.95892334"/>
      <point x="521.127807617" y="748.0"/>
      <point x="632.0" y="748.0" type="curve" smooth="yes"/>
      <point x="730.746459961" y="748.0"/>
      <point x="828.0" y="690.48223877"/>
      <point x="828.0" y="558.756835938" type="curve" smooth="yes"/>
      <point x="828.0" y="60.0" type="line"/>
      <point x="990.0" y="60.0" type="line"/>
      <point x="990.0" y="580.150390625" type="line" smooth="yes"/>
      <point x="990.0" y="734.705078125"/>
      <point x="869.357116699" y="843.0"/>
      <point x="711.0" y="843.0" type="curve" smooth="yes"/>
      <point x="626.846130371" y="843.0"/>
      <point x="532.303100586" y="812.595458984"/>
      <point x="440.701171875" y="731.757263184" type="curve" smooth="yes"/>
      <point x="341.0" y="643.770446777" type="line"/>
      <point x="341.0" y="815.0" type="line"/>
      <point x="182.0" y="815.0" type="line"/>
      <point x="182.0" y="60.0" type="line"/>
    </contour>
  </outline>
</glyph>
<glyph name="o" format="1">
  <advance width="1146"/>
  <unicode hex="006F"/>
  <outline>
    <contour>
      <point x="1033" y="408" type="curve" smooth="yes"/>
      <point x="1033" y="139"/>
      <point x="820" y="-16"/>
      <point x="587" y="-16" type="curve" smooth="yes"/>
      <point x="355" y="-16"/>
      <point x="143" y="138"/>
      <point x="143" y="408" type="curve" smooth="yes"/>
      <point x="143" y="682"/>
      <point x="356" y="840"/>
      <point x="589" y="840" type="curve" smooth="yes"/>
      <point x="806" y="840"/>
      <point x="1033" y="683"/>
    </contour>
    <contour>
      <point x="588" y="81" type="curve" smooth="yes"/>
      <point x="804" y="81"/>
      <point x="914" y="244"/>
      <point x="914" y="409" type="curve" smooth="yes"/>
      <point x="914" y="575"/>
      <point x="800" y="742"/>
      <point x="588" y="742" type="curve" smooth="yes"/>
      <point x="376" y="742"/>
      <point x="262" y="576"/>
      <point x="262" y="410" type="curve" smooth="yes"/>
      <point x="262" y="245"/>
      <point x="372" y="81"/>
    </contour>
  </outline>
</glyph>
<glyph name="p" format="1">
  <advance width="1101"/>
  <unicode hex="0070"/>
  <outline>
    <contour>
      <point x="371.665130615" y="186.782592773" type="line"/>
      <point x="338.0" y="203.227371216" type="line"/>
      <point x="338.0" y="639.452102661" type="line"/>
      <point x="368.958343506" y="656.576431274" type="line" smooth="yes"/>
      <point x="402.477478027" y="675.116348267"/>
      <point x="463.515533447" y="702.000015259"/>
      <point x="543.0" y="702.000015259" type="curve" smooth="yes"/>
      <point x="699.632873535" y="702.000015259"/>
      <point x="784.0" y="587.246963501"/>
      <point x="784.0" y="456.622085571" type="curve" smooth="yes"/>
      <point x="784.0" y="312.869430542"/>
      <point x="699.983276367" y="152.000015259"/>
      <point x="525.0" y="152.000015259" type="curve" smooth="yes"/>
      <point x="454.643280029" y="152.000015259"/>
      <point x="402.341491699" y="171.797637939"/>
      <point x="371.665130615" y="186.782608032" type="curve"/>
    </contour>
    <contour>
      <point x="338.0" y="-363.999984741" type="line"/>
      <point x="338.0" y="23.4882965088" type="line"/>
      <point x="418.064208984" y="-4.92098999023" type="line" smooth="yes"/>
      <point x="450.644195557" y="-16.4812316895"/>
      <point x="494.115142822" y="-26.0"/>
      <point x="545.0" y="-26.0" type="curve" smooth="yes"/>
      <point x="808.729858398" y="-26.0"/>
      <point x="952.0" y="188.452972412"/>
      <point x="952.0" y="390.768554688" type="curve" smooth="yes"/>
      <point x="952.0" y="612.666381836"/>
      <point x="823.931640625" y="786.0"/>
      <point x="620.0" y="786.0" type="curve" smooth="yes"/>
      <point x="534.182983398" y="786.0"/>
      <point x="469.866607666" y="740.45489502"/>
      <point x="438.521759033" y="711.750854492" type="curve" smooth="yes"/>
      <point x="338.0" y="619.696655273" type="line"/>
      <point x="338.0" y="764.0" type="line"/>
      <point x="182.0" y="764.0" type="line"/>
      <point x="182.0" y="-364.0" type="line"/>
    </contour>
  </outline>
</glyph>
<glyph name="q" format="1">
  <advance width="1077"/>
  <unicode hex="0071"/>
  <outline>
    <contour>
      <point x="295" y="444.771484375" type="line"/>
      <point x="295" y="609.832763672"/>
      <point x="412.794616699" y="709.0"/>
      <point x="540.0" y="709.0" type="curve" smooth="yes"/>
      <point x="589.842468262" y="709.0"/>
      <point x="642.547302246" y="696.465393066"/>
      <point x="698.818359375" y="669.642456055" type="curve" smooth="yes"/>
      <point x="733.0" y="653.348205566" type="line"/>
      <point x="733.0" y="204.255371094" type="line"/>
      <point x="693.928344727" y="189.713638306" type="line" smooth="yes"/>
      <point x="669.877441406" y="180.762481689"/>
      <point x="630.801208496" y="171.000015259"/>
      <point x="578.0" y="171.000015259" type="curve" smooth="yes"/>
      <point x="405.585906982" y="171.000015259"/>
      <point x="295.0" y="307.556838989"/>
      <point x="295.0" y="444.771499634" type="curve"/>
    </contour>
    <contour>
      <point x="888.0" y="-363.999984741" type="line"/>
      <point x="888.0" y="764.000015259" type="line"/>
      <point x="733.0" y="764.000015259" type="line"/>
      <point x="733.0" y="692.079360962" type="line"/>
      <point x="643.64440918" y="742.206863403" type="line" smooth="yes"/>
      <point x="597.293518066" y="768.20930481"/>
      <point x="549.409301758" y="781.000015259"/>
      <point x="505.0" y="781.000015259" type="curve" smooth="yes"/>
      <point x="304.395446777" y="781.000015259"/>
      <point x="128.0" y="616.399490356"/>
      <point x="128.0" y="393.651382446" type="curve" smooth="yes"/>
      <point x="128.0" y="189.244247437"/>
      <point x="280.393280029" y="-25.9999847412"/>
      <point x="567.0" y="-25.9999847412" type="curve" smooth="yes"/>
      <point x="599.648254395" y="-25.9999847412"/>
      <point x="629.082214355" y="-19.2784881592"/>
      <point x="653.096191406" y="-10.8340454102" type="curve" smooth="yes"/>
      <point x="733.0" y="17.263458252" type="line"/>
      <point x="733.0" y="-364.0" type="line"/>
    </contour>
  </outline>
</glyph>
<glyph name="r" format="1">
  <advance width="896"/>
  <unicode hex="0072"/>
  <outline>
    <contour>
      <point x="758.652038574" y="735.716003418" type="line"/>
      <point x="699.905395508" y="796.087341309"/>
      <point x="651.295532227" y="821.0"/>
      <point x="603.0" y="821.0" type="curve" smooth="yes"/>
      <point x="561.873718262" y="821.0"/>
      <point x="486.534698486" y="774.713684082"/>
      <point x="446.293914795" y="708.401611328" type="curve" smooth="yes"/>
      <point x="335.0" y="525.005371094" type="line"/>
      <point x="335.0" y="816.0" type="line"/>
      <point x="182.0" y="816.0" type="line"/>
      <point x="182.0" y="60.0" type="line"/>
      <point x="335.0" y="60.0" type="line"/>
      <point x="335.0" y="365.122070312" type="line" smooth="yes"/>
      <point x="335.0" y="550.248901367"/>
      <point x="426.502990723" y="674.797851562"/>
      <point x="555.880859375" y="674.797851562" type="curve" smooth="yes"/>
      <point x="608.35723877" y="674.797851562"/>
      <point x="654.046936035" y="652.679321289"/>
      <point x="694.174133301" y="620.334716797" type="curve"/>
    </contour>
  </outline>
</glyph>
<glyph name="s" format="1">
  <advance width="846"/>
  <unicode hex="0073"/>
  <outline>
    <contour>
      <point x="661.900695801" y="792.63482666" type="line"/>
      <point x="615.487854004" y="813.740600586"/>
      <point x="529.132263184" y="844.0"/>
      <point x="418.5078125" y="844.0" type="curve" smooth="yes"/>
      <point x="247.667892456" y="844.0"/>
      <point x="168.364257812" y="741.237365723"/>
      <point x="168.364257812" y="643.749023438" type="curve" smooth="yes"/>
      <point x="168.364257812" y="579.611816406"/>
      <point x="202.084732056" y="510.206939697"/>
      <point x="283.413452148" y="460.665740967" type="curve" smooth="yes"/>
      <point x="481.377471924" y="340.077301025" type="line" smooth="yes"/>
      <point x="520.394042969" y="316.403320312"/>
      <point x="551.552734375" y="279.749420166"/>
      <point x="551.552734375" y="233.36328125" type="curve" smooth="yes"/>
      <point x="551.552734375" y="219.608657837"/>
      <point x="548.92755127" y="204.430938721"/>
      <point x="541.951049805" y="190.064346313" type="curve" smooth="yes"/>
      <point x="516.975463867" y="138.632675171"/>
      <point x="463.255249023" y="132.314453125"/>
      <point x="425.05859375" y="132.314453125" type="curve" smooth="yes"/>
      <point x="342.59475708" y="132.314453125"/>
      <point x="246.548171997" y="168.032119751"/>
      <point x="159.113830566" y="213.72505188" type="curve"/>
      <point x="147.670883179" y="118.368362427" type="line"/>
      <point x="191.388687134" y="89.4381866455"/>
      <point x="294.639633179" y="34.9999847412"/>
      <point x="450.507797241" y="34.9999847412" type="curve" smooth="yes"/>
      <point x="617.805587769" y="34.9999847412"/>
      <point x="695.828109741" y="139.281723022"/>
      <point x="695.828109741" y="236.404281616" type="curve" smooth="yes"/>
      <point x="695.828109741" y="297.940109253"/>
      <point x="663.260299683" y="361.306167603"/>
      <point x="588.232711792" y="407.905960083" type="curve" smooth="yes"/>
      <point x="375.232833862" y="540.199874878" type="line" smooth="yes"/>
      <point x="339.914535522" y="562.134872437"/>
      <point x="307.780258179" y="600.077926636"/>
      <point x="307.780258179" y="649.631820679" type="curve" smooth="yes"/>
      <point x="307.780258179" y="715.366867065"/>
      <point x="372.219223022" y="748.999984741"/>
      <point x="442.507797241" y="748.999984741" type="curve" smooth="yes"/>
      <point x="514.793807983" y="748.999984741"/>
      <point x="586.204330444" y="725.688644409"/>
      <point x="638.853805542" y="704.768539429" type="curve"/>
    </contour>
  </outline>
</glyph>
<glyph name="t" format="1">
  <advance width="833"/>
  <unicode hex="0074"/>
  <outline>
    <contour>
      <point x="525.609375" y="206.729492188" type="line"/>
      <point x="453.675140381" y="206.729492188"/>
      <point x="370.405273438" y="250.333633423"/>
      <point x="370.405273438" y="356.034179688" type="curve" smooth="yes"/>
      <point x="370.405273438" y="780.0" type="line"/>
      <point x="638.405273438" y="780.0" type="line"/>
      <point x="638.405273438" y="875.0" type="line"/>
      <point x="370.405273438" y="875.0" type="line"/>
      <point x="370.405273438" y="1048.08666992" type="line"/>
      <point x="110.073974609" y="780.0" type="line"/>
      <point x="220.405273438" y="780.0" type="line"/>
      <point x="220.405273438" y="280.8046875" type="line" smooth="yes"/>
      <point x="220.405273438" y="168.180007935"/>
      <point x="331.024108887" y="94.0"/>
      <point x="464.405273438" y="94.0" type="curve" smooth="yes"/>
      <point x="576.924316406" y="94.0"/>
      <point x="649.829650879" y="128.723648071"/>
      <point x="683.405273438" y="149.403961182" type="curve"/>
      <point x="683.405273438" y="239.566543579" type="line"/>
      <point x="639.122741699" y="223.94758606"/>
      <point x="581.380981445" y="206.729507446"/>
      <point x="525.609375" y="206.729507446" type="curve"/>
    </contour>
  </outline>
</glyph>
<glyph name="u" format="1">
  <advance width="1152"/>
  <unicode hex="0075"/>
  <outline>
    <contour>
      <point x="804" y="815" type="line"/>
      <point x="804" y="279.758789062" type="line"/>
      <point x="797.488342285" y="266.946411133" type="line" smooth="yes"/>
      <point x="754.364135742" y="182.092300415"/>
      <point x="637.962280273" y="127.000030518"/>
      <point x="526.0" y="127.000030518" type="curve" smooth="yes"/>
      <point x="427.253540039" y="127.000030518"/>
      <point x="330.0" y="184.517745972"/>
      <point x="330.0" y="316.24319458" type="curve" smooth="yes"/>
      <point x="330.0" y="815.000030518" type="line"/>
      <point x="168.0" y="815.000030518" type="line"/>
      <point x="168.0" y="294.849639893" type="line" smooth="yes"/>
      <point x="168.0" y="140.294937134"/>
      <point x="288.642852783" y="32.0000305176"/>
      <point x="447.0" y="32.0000305176" type="curve" smooth="yes"/>
      <point x="530.665893555" y="32.0000305176"/>
      <point x="614.956970215" y="61.0178527832"/>
      <point x="707.118591309" y="143.009765625" type="curve" smooth="yes"/>
      <point x="807.0" y="231.871459961" type="line"/>
      <point x="807.0" y="60.0000305176" type="line"/>
      <point x="966.0" y="60.0000305176" type="line"/>
      <point x="966.0" y="815.000030518" type="line"/>
    </contour>
  </outline>
</glyph>
<glyph name="v" format="1">
  <advance width="1082"/>
  <unicode hex="0076"/>
  <outline>
    <contour>
      <point x="930.59197998" y="824" type="line"/>
      <point x="759.105529785" y="824" type="line"/>
      <point x="529.404174805" y="240.371337891" type="line"/>
      <point x="296.186187744" y="824.0" type="line"/>
      <point x="127.259338379" y="824.0" type="line"/>
      <point x="514.834716797" y="52.0" type="line"/>
      <point x="540.361755371" y="52.0" type="line"/>
    </contour>
  </outline>
</glyph>
<glyph name="w" format="1">
  <advance width="1395"/>
  <unicode hex="0077"/>
  <outline>
    <contour>
      <point x="690.498474121" y="729.783630371" type="line"/>
      <point x="936.224121094" y="52.0" type="line"/>
      <point x="966.188598633" y="52.0" type="line"/>
      <point x="1246.6940918" y="824.0" type="line"/>
      <point x="1089.49182129" y="824.0" type="line"/>
      <point x="944.575134277" y="285.370605469" type="line"/>
      <point x="754.771850586" y="824.0" type="line"/>
      <point x="614.982177734" y="824.0" type="line"/>
      <point x="433.71005249" y="290.614379883" type="line"/>
      <point x="295.473114014" y="824.0" type="line"/>
      <point x="124.638900757" y="824.0" type="line"/>
      <point x="405.144393921" y="52.0" type="line"/>
      <point x="441.278884888" y="52.0" type="line"/>
    </contour>
  </outline>
</glyph>
<glyph name="x" format="1">
  <advance width="1219"/>
  <unicode hex="0078"/>
  <outline>
    <contour>
      <point x="613.422668457" y="378.995025635" type="line"/>
      <point x="871.693054199" y="52.0" type="line"/>
      <point x="1040.08813477" y="52.0" type="line"/>
      <point x="697.041687012" y="439.408599854" type="line"/>
      <point x="1026.49255371" y="824.0" type="line"/>
      <point x="842.310791016" y="824.0" type="line"/>
      <point x="605.199707031" y="511.190979004" type="line"/>
      <point x="359.182495117" y="824.0" type="line"/>
      <point x="189.875961304" y="824.0" type="line"/>
      <point x="520.95085144" y="450.235656738" type="line"/>
      <point x="178.682907104" y="52.0" type="line"/>
      <point x="368.453308105" y="52.0" type="line"/>
    </contour>
  </outline>
</glyph>
<glyph name="y" format="1">
  <advance width="1093"/>
  <unicode hex="0079"/>
  <outline>
    <contour>
      <point x="943.585876465" y="765" type="line"/>
      <point x="779.40411377" y="765" type="line"/>
      <point x="549.760314941" y="291.864074707" type="line"/>
      <point x="313.192382812" y="765.0" type="line"/>
      <point x="128.457473755" y="765.0" type="line"/>
      <point x="464.480606079" y="177.723083496" type="line"/>
      <point x="265.148239136" y="-244.0" type="line"/>
      <point x="432.423171997" y="-244.0" type="line"/>
    </contour>
  </outline>
</glyph>
<glyph name="z" format="1">
  <advance width="958"/>
  <unicode hex="007A"/>
  <outline>
    <contour>
      <point x="791.046875" y="173" type="line"/>
      <point x="359.889038086" y="173" type="line"/>
      <point x="802.53125" y="796.393188477" type="line"/>
      <point x="789.958068848" y="824.0" type="line"/>
      <point x="175.046875" y="824.0" type="line"/>
      <point x="175.046875" y="704.0" type="line"/>
      <point x="585.211181641" y="704.0" type="line"/>
      <point x="142.64730835" y="69.5256958008" type="line"/>
      <point x="148.668457031" y="52.0" type="line"/>
      <point x="791.046875" y="52.0" type="line"/>
    </contour>
  </outline>
</glyph>
<glyph name="cent" format="1">
  <advance width="953.0"/>
  <unicode hex="00A2"/>
  <outline>
    <contour>
      <point x="595" y="1009" type="line"/>
      <point x="347" y="-202" type="line"/>
      <point x="415" y="-202" type="line"/>
      <point x="665" y="1009" type="line"/>
    </contour>
    <component base="c"/>
  </outline>
</glyph>
<glyph name="acute" format="1">
  <advance width="370"/>
  <unicode hex="00B4"/>
  <outline>
    <contour>
      <point x="8" y="121" type="line" smooth="yes"/>
      <point x="2.666015625" y="109.755004883"/>
      <point x="0.32421875" y="99.2676086426"/>
      <point x="0.32421875" y="89.9804992676" type="curve" smooth="yes"/>
      <point x="0.32421875" y="65.6864929199"/>
      <point x="16.3477020264" y="49.5977020264"/>
      <point x="36.7626953125" y="49.5977020264" type="curve" smooth="yes"/>
      <point x="49.4111022949" y="49.5977020264"/>
      <point x="63.74609375" y="55.7734069824"/>
      <point x="77.0" y="70.0" type="curve" smooth="yes"/>
      <point x="336.0" y="348.0" type="line" smooth="yes"/>
      <point x="370.45199585" y="384.979003906"/>
      <point x="384.459991455" y="422.148986816"/>
      <point x="384.459991455" y="454.490997314" type="curve" smooth="yes"/>
      <point x="384.459991455" y="511.17098999"/>
      <point x="341.436004639" y="553.020019531"/>
      <point x="290.037994385" y="553.020019531" type="curve" smooth="yes"/>
      <point x="247.557006836" y="553.020019531"/>
      <point x="199.354995728" y="524.432006836"/>
      <point x="165.0" y="452.0" type="curve" smooth="yes"/>
    </contour>
  </outline>
</glyph>
<glyph name="paragraph" format="1">
  <advance width="1074"/>
  <unicode hex="00B6"/>
  <outline>
    <contour>
      <point x="562.0" y="0.0" type="line"/>
      <point x="690.0" y="0.0" type="line"/>
      <point x="690.0" y="1148.0" type="line"/>
      <point x="781.0" y="1148.0" type="line"/>
      <point x="781.0" y="0.0" type="line"/>
      <point x="909.0" y="0.0" type="line"/>
      <point x="909.0" y="1241.0" type="line"/>
      <point x="651" y="1241" type="line" smooth="yes"/>
      <point x="368" y="1241"/>
      <point x="174" y="1195"/>
      <point x="174" y="956" type="curve" smooth="yes"/>
      <point x="174.0" y="700.584709823"/>
      <point x="345.124766448" y="643.747357182"/>
      <point x="535.929977105" y="639.296024078" type="curve" smooth="yes"/>
      <point x="544.584208403" y="639.094127777"/>
      <point x="553.278926313" y="639.0"/>
      <point x="562" y="639" type="curve"/>
    </contour>
  </outline>
</glyph>
<glyph name="AE" format="1">
  <advance width="1518"/>
  <unicode hex="00C6"/>
  <outline>
    <contour>
      <point x="130" y="0" type="line"/>
      <point x="259" y="0" type="line"/>
      <point x="392" y="299" type="line"/>
      <point x="721" y="299" type="line"/>
      <point x="719" y="100" type="line"/>
      <point x="783" y="100" type="line"/>
      <point x="686" y="1242" type="line"/>
    </contour>
    <contour>
      <point x="431" y="392" type="line"/>
      <point x="685" y="992" type="line"/>
      <point x="716" y="392" type="line"/>
    </contour>
    <component base="E" xOffset="487"/>
  </outline>
</glyph>
<glyph name="Eth" format="1">
  <advance width="1402"/>
  <unicode hex="00D0"/>
  <outline>
    <contour>
      <point x="664" y="578" type="line"/>
      <point x="664" y="677" type="line"/>
      <point x="0" y="677" type="line"/>
      <point x="0" y="578" type="line"/>
    </contour>
    <component base="D"/>
  </outline>
</glyph>
<glyph name="multiply" format="1">
  <advance width="1009"/>
  <unicode hex="00D7"/>
  <outline>
    <contour>
      <point x="563" y="605" type="line"/>
      <point x="721" y="764" type="line"/>
      <point x="655" y="829" type="line"/>
      <point x="497" y="671" type="line"/>
      <point x="339" y="829" type="line"/>
      <point x="273" y="764" type="line"/>
      <point x="431" y="605" type="line"/>
      <point x="274" y="448" type="line"/>
      <point x="339" y="382" type="line"/>
      <point x="497" y="540" type="line"/>
      <point x="655" y="382" type="line"/>
      <point x="720" y="448" type="line"/>
    </contour>
  </outline>
</glyph>
<glyph name="Thorn" format="1">
  <advance width="1063"/>
  <unicode hex="00DE"/>
  <outline>
    <contour>
      <point x="345" y="0" type="line"/>
      <point x="345" y="291" type="line"/>
      <point x="534" y="291" type="line" smooth="yes"/>
      <point x="815" y="291"/>
      <point x="1013" y="372"/>
      <point x="1013" y="653" type="curve" smooth="yes"/>
      <point x="1013" y="893"/>
      <point x="841" y="1007"/>
      <point x="538" y="1007" type="curve" smooth="yes"/>
      <point x="345" y="1007" type="line"/>
      <point x="345" y="1241" type="line"/>
      <point x="217" y="1241" type="line"/>
      <point x="217" y="0" type="line"/>
    </contour>
    <contour>
      <point x="796" y="905"/>
      <point x="885" y="798"/>
      <point x="885" y="648" type="curve" smooth="yes"/>
      <point x="885" y="457"/>
      <point x="754" y="393"/>
      <point x="548" y="393" type="curve" smooth="yes"/>
      <point x="345" y="393" type="line"/>
      <point x="345" y="905" type="line"/>
      <point x="543" y="905" type="line" smooth="yes"/>
    </contour>
  </outline>
</glyph>
<glyph name="germandbls" format="1">
  <advance width="1105"/>
  <unicode hex="00DF"/>
  <outline>
    <contour>
      <point x="656" y="-34" type="curve" smooth="yes"/>
      <point x="854" y="-34"/>
      <point x="1015" y="46"/>
      <point x="1015" y="279" type="curve" smooth="yes"/>
      <point x="1015" y="399"/>
      <point x="1002" y="523"/>
      <point x="650" y="669" type="curve"/>
      <point x="837" y="698"/>
      <point x="874" y="847"/>
      <point x="874" y="930" type="curve" smooth="yes"/>
      <point x="874" y="1134"/>
      <point x="718" y="1241"/>
      <point x="522" y="1241" type="curve"/>
      <point x="285" y="1241"/>
      <point x="165" y="1094"/>
      <point x="165" y="935" type="curve" smooth="yes"/>
      <point x="165" y="0" type="line"/>
      <point x="293" y="0" type="line"/>
      <point x="293" y="942" type="line"/>
      <point x="293" y="1045"/>
      <point x="362" y="1145"/>
      <point x="533" y="1145" type="curve"/>
      <point x="674" y="1145"/>
      <point x="761" y="1064"/>
      <point x="761" y="932" type="curve" smooth="yes"/>
      <point x="761" y="757"/>
      <point x="621" y="728"/>
      <point x="487" y="728" type="curve"/>
      <point x="487" y="650" type="line"/>
      <point x="714" y="541" type="line" smooth="yes"/>
      <point x="865" y="462"/>
      <point x="898" y="389"/>
      <point x="898" y="273" type="curve" smooth="yes"/>
      <point x="898" y="132"/>
      <point x="811" y="67"/>
      <point x="653" y="67" type="curve" smooth="yes"/>
      <point x="530" y="67"/>
      <point x="407" y="123"/>
      <point x="407" y="123" type="curve"/>
      <point x="407" y="21" type="line"/>
      <point x="407" y="21"/>
      <point x="525" y="-34"/>
    </contour>
  </outline>
</glyph>
<glyph name="ae" format="1">
  <advance width="1514"/>
  <unicode hex="00E6"/>
  <outline>
    <contour>
      <point x="368" y="-16" type="curve" smooth="yes"/>
      <point x="482" y="-16"/>
      <point x="588" y="37"/>
      <point x="693" y="134" type="curve"/>
      <point x="766" y="35"/>
      <point x="884" y="-15"/>
      <point x="1032" y="-15" type="curve" smooth="yes"/>
      <point x="1161" y="-15"/>
      <point x="1217" y="18"/>
      <point x="1284" y="57" type="curve"/>
      <point x="1284" y="159" type="line"/>
      <point x="1223" y="126"/>
      <point x="1171" y="81"/>
      <point x="1029" y="81" type="curve" smooth="yes"/>
      <point x="857" y="81"/>
      <point x="745" y="170"/>
      <point x="730" y="388" type="curve"/>
      <point x="1315" y="388" type="line"/>
      <point x="1315" y="409" type="line" smooth="yes"/>
      <point x="1315" y="633"/>
      <point x="1227" y="840"/>
      <point x="971" y="840" type="curve" smooth="yes"/>
      <point x="855" y="840"/>
      <point x="752" y="783"/>
      <point x="689" y="678" type="curve"/>
      <point x="639" y="795"/>
      <point x="541" y="840"/>
      <point x="439" y="840" type="curve" smooth="yes"/>
      <point x="303" y="840"/>
      <point x="185" y="790"/>
      <point x="132" y="760" type="curve"/>
      <point x="168" y="670" type="line"/>
      <point x="226" y="699"/>
      <point x="325" y="742"/>
      <point x="410" y="742" type="curve" smooth="yes"/>
      <point x="499" y="742"/>
      <point x="611" y="723"/>
      <point x="611" y="545" type="curve" smooth="yes"/>
      <point x="611" y="500" type="line"/>
      <point x="433" y="462" type="line" smooth="yes"/>
      <point x="140" y="396"/>
      <point x="128" y="266"/>
      <point x="128" y="193" type="curve" smooth="yes"/>
      <point x="128" y="68"/>
      <point x="233" y="-16"/>
    </contour>
    <contour>
      <point x="387" y="79" type="curve" smooth="yes"/>
      <point x="303" y="79"/>
      <point x="255" y="137"/>
      <point x="255" y="208" type="curve" smooth="yes"/>
      <point x="255" y="270"/>
      <point x="276" y="337"/>
      <point x="419" y="374" type="curve" smooth="yes"/>
      <point x="611" y="422" type="line"/>
      <point x="611" y="338"/>
      <point x="626" y="262"/>
      <point x="655" y="199" type="curve"/>
      <point x="597" y="148"/>
      <point x="479" y="79"/>
    </contour>
    <contour>
      <point x="738" y="474" type="line"/>
      <point x="746" y="542"/>
      <point x="768" y="742"/>
      <point x="986" y="742" type="curve" smooth="yes"/>
      <point x="1140" y="742"/>
      <point x="1198" y="614"/>
      <point x="1207" y="474" type="curve"/>
    </contour>
  </outline>
</glyph>
<glyph name="ccedilla" format="1">
  <advance width="966"/>
  <unicode hex="00E7"/>
  <outline>
    <contour>
      <point x="513" y="-77" type="line"/>
      <point x="409" y="-107"/>
      <point x="367" y="-159"/>
      <point x="367" y="-210" type="curve" smooth="yes"/>
      <point x="367" y="-287"/>
      <point x="463" y="-363"/>
      <point x="593" y="-363" type="curve"/>
      <point x="632" y="-295" type="line"/>
      <point x="565" y="-275"/>
      <point x="504" y="-227"/>
      <point x="504" y="-187" type="curve" smooth="yes"/>
      <point x="504" y="-160"/>
      <point x="531" y="-136"/>
      <point x="602" y="-127" type="curve"/>
      <point x="602" y="-6" type="line"/>
      <point x="513" y="-6" type="line"/>
    </contour>
    <contour>
      <point x="130.0" y="439.978515625" type="curve" smooth="yes"/>
      <point x="130" y="204.080078125"/>
      <point x="301.380859375" y="35.0"/>
      <point x="571.0" y="35.0" type="curve" smooth="yes"/>
      <point x="676.862304688" y="35.0"/>
      <point x="749.296875" y="69.0859375"/>
      <point x="788.0" y="90.9638671875" type="curve"/>
      <point x="788.0" y="195.416015625" type="line"/>
      <point x="737.6015625" y="172.983398438"/>
      <point x="676.459960938" y="157.0"/>
      <point x="592.0" y="157.0" type="curve" smooth="yes"/>
      <point x="405.895507812" y="157.0"/>
      <point x="285.0" y="280.916992188"/>
      <point x="285.0" y="440.84765625" type="curve" smooth="yes"/>
      <point x="285.0" y="600.856445312"/>
      <point x="402.706054688" y="718.0"/>
      <point x="580.0" y="718.0" type="curve" smooth="yes"/>
      <point x="667.37109375" y="718.0"/>
      <point x="736.342773438" y="695.530273438"/>
      <point x="788.0" y="668.92578125" type="curve"/>
      <point x="788.0" y="794.87109375" type="line"/>
      <point x="758.939453125" y="812.2421875"/>
      <point x="693.428710938" y="843.0"/>
      <point x="565.0" y="843.0" type="curve" smooth="yes"/>
      <point x="311.716796875" y="843.0"/>
      <point x="130.0" y="680.6875"/>
    </contour>
  </outline>
</glyph>
<glyph name="eacute" format="1">
  <advance width="1021"/>
  <unicode hex="00E9"/>
  <outline>
    <contour>
      <point x="554" y="1108.5" type="line" smooth="yes"/>
      <point x="548.666015625" y="1097.25488281"/>
      <point x="546.32421875" y="1086.76757812"/>
      <point x="546.32421875" y="1077.48046875" type="curve" smooth="yes"/>
      <point x="546.32421875" y="1053.18652344"/>
      <point x="562.34765625" y="1037.09765625"/>
      <point x="582.762695312" y="1037.09765625" type="curve" smooth="yes"/>
      <point x="595.411132812" y="1037.09765625"/>
      <point x="609.74609375" y="1043.2734375"/>
      <point x="623.0" y="1057.5" type="curve" smooth="yes"/>
      <point x="882.0" y="1335.5" type="line" smooth="yes"/>
      <point x="916.452148438" y="1372.47851562"/>
      <point x="930.459960938" y="1409.6484375"/>
      <point x="930.459960938" y="1441.99121094" type="curve" smooth="yes"/>
      <point x="930.459960938" y="1498.67089844"/>
      <point x="887.435546875" y="1540.51953125"/>
      <point x="836.038085938" y="1540.51953125" type="curve" smooth="yes"/>
      <point x="793.556640625" y="1540.51953125"/>
      <point x="745.35546875" y="1511.93164062"/>
      <point x="711.0" y="1439.5" type="curve" smooth="yes"/>
    </contour>
    <contour>
      <point x="302.80859375" y="582.315429688" type="line" smooth="yes"/>
      <point x="333.735351562" y="691.770507812"/>
      <point x="433.61328125" y="761.0"/>
      <point x="545.0" y="761.0" type="curve" smooth="yes"/>
      <point x="644.291992188" y="761.0"/>
      <point x="735.03125" y="699.102539062"/>
      <point x="750.551757812" y="573.3515625" type="curve" smooth="yes"/>
      <point x="758.8671875" y="506.0" type="line"/>
      <point x="281.244140625" y="506.0" type="line"/>
    </contour>
    <contour>
      <point x="290.349609375" y="376.366210938" type="curve" smooth="yes"/>
      <point x="274.704101562" y="449.0" type="line"/>
      <point x="858.0" y="449.0" type="line"/>
      <point x="858.0" y="455.702148438" type="line" smooth="yes"/>
      <point x="858.0" y="683.689453125"/>
      <point x="759.776367188" y="843.0"/>
      <point x="517.0" y="843.0" type="curve" smooth="yes"/>
      <point x="287.860351562" y="843.0"/>
      <point x="130.0" y="662.919921875"/>
      <point x="130.0" y="452.684570312" type="curve" smooth="yes"/>
      <point x="130.0" y="172.948242188"/>
      <point x="358.18359375" y="33.0"/>
      <point x="600.0" y="33.0" type="curve" smooth="yes"/>
      <point x="686.895507812" y="33.0"/>
      <point x="772.813476562" y="53.833984375"/>
      <point x="847.0" y="91.6708984375" type="curve"/>
      <point x="847.0" y="182.358398438" type="line"/>
      <point x="784.447265625" y="155.396484375"/>
      <point x="707.1484375" y="136.0"/>
      <point x="624.0" y="136.0" type="curve" smooth="yes"/>
      <point x="485.662109375" y="136.0"/>
      <point x="329.709960938" y="193.635742188"/>
    </contour>
  </outline>
</glyph>
<glyph name="eth" format="1">
  <advance width="978.0"/>
  <unicode hex="00F0"/>
  <outline>
    <contour>
      <point x="484" y="-16" type="curve" smooth="yes"/>
      <point x="725" y="-16"/>
      <point x="888" y="161"/>
      <point x="888" y="386" type="curve" smooth="yes"/>
      <point x="888" y="550"/>
      <point x="824" y="659"/>
      <point x="708" y="831" type="curve" smooth="yes"/>
      <point x="635" y="940"/>
      <point x="389" y="1241"/>
      <point x="389" y="1241" type="curve"/>
      <point x="258" y="1241" type="line"/>
      <point x="661" y="714" type="line"/>
      <point x="630" y="737"/>
      <point x="556" y="768"/>
      <point x="463" y="768" type="curve" smooth="yes"/>
      <point x="274" y="768"/>
      <point x="78" y="605"/>
      <point x="78" y="376" type="curve" smooth="yes"/>
      <point x="78" y="154"/>
      <point x="256" y="-16"/>
    </contour>
    <contour>
      <point x="491" y="81" type="curve" smooth="yes"/>
      <point x="324" y="81"/>
      <point x="195" y="217"/>
      <point x="195" y="373" type="curve" smooth="yes"/>
      <point x="195" y="538"/>
      <point x="321" y="666"/>
      <point x="484" y="666" type="curve" smooth="yes"/>
      <point x="665" y="666"/>
      <point x="766" y="520"/>
      <point x="766" y="367" type="curve" smooth="yes"/>
      <point x="766" y="213"/>
      <point x="658" y="81"/>
    </contour>
    <contour>
      <point x="279" y="882" type="line"/>
      <point x="731" y="1194" type="line"/>
      <point x="680" y="1258" type="line"/>
      <point x="228" y="946" type="line"/>
    </contour>
  </outline>
</glyph>
<glyph name="oslash" format="1">
  <advance width="1146.0"/>
  <unicode hex="00F8"/>
  <outline>
    <contour>
      <point x="865" y="901" type="line"/>
      <point x="915" y="866" type="line"/>
      <point x="265" y="-74" type="line"/>
      <point x="215" y="-39" type="line"/>
    </contour>
    <component base="o"/>
  </outline>
</glyph>
<glyph name="ugrave" format="1">
  <advance width="1152"/>
  <unicode hex="00F9"/>
  <outline>
    <contour>
      <point x="681.215820312" y="1108.5" type="curve" smooth="yes"/>
      <point x="524.215820312" y="1439.5" type="line" smooth="yes"/>
      <point x="490.215820312" y="1511.5"/>
      <point x="441.215820312" y="1540.5"/>
      <point x="399.215820312" y="1540.5" type="curve" smooth="yes"/>
      <point x="348.215820312" y="1540.5"/>
      <point x="304.215820312" y="1498.5"/>
      <point x="304.215820312" y="1441.5" type="curve" smooth="yes"/>
      <point x="304.215820312" y="1409.5"/>
      <point x="319.215820312" y="1372.5"/>
      <point x="353.215820312" y="1335.5" type="curve" smooth="yes"/>
      <point x="612.215820312" y="1057.5" type="line" smooth="yes"/>
      <point x="625.215820312" y="1043.5"/>
      <point x="639.215820312" y="1037.5"/>
      <point x="652.215820312" y="1037.5" type="curve" smooth="yes"/>
      <point x="672.215820312" y="1037.5"/>
      <point x="688.215820312" y="1053.5"/>
      <point x="688.215820312" y="1077.5" type="curve" smooth="yes"/>
      <point x="688.215820312" y="1086.5"/>
      <point x="686.215820312" y="1097.5"/>
    </contour>
    <contour>
      <point x="804.0" y="815.0" type="line"/>
      <point x="804.0" y="279.758789062" type="line"/>
      <point x="797.48828125" y="266.946289062" type="line" smooth="yes"/>
      <point x="754.364257812" y="182.091796875"/>
      <point x="637.961914062" y="127.0"/>
      <point x="526.0" y="127.0" type="curve" smooth="yes"/>
      <point x="427.25390625" y="127.0"/>
      <point x="330.0" y="184.517578125"/>
      <point x="330.0" y="316.243164062" type="curve" smooth="yes"/>
      <point x="330.0" y="815.0" type="line"/>
      <point x="168.0" y="815.0" type="line"/>
      <point x="168.0" y="294.849609375" type="line" smooth="yes"/>
      <point x="168.0" y="140.294921875"/>
      <point x="288.642578125" y="32.0"/>
      <point x="447.0" y="32.0" type="curve" smooth="yes"/>
      <point x="530.666015625" y="32.0"/>
      <point x="614.95703125" y="61.017578125"/>
      <point x="707.118164062" y="143.009765625" type="curve" smooth="yes"/>
      <point x="807.0" y="231.87109375" type="line"/>
      <point x="807.0" y="60.0" type="line"/>
      <point x="966.0" y="60.0" type="line"/>
      <point x="966.0" y="815.0" type="line"/>
    </contour>
  </outline>
</glyph>
<glyph name="uacute" format="1">
  <advance width="1152"/>
  <unicode hex="00FA"/>
  <outline>
    <contour>
      <point x="601" y="1108.5" type="line" smooth="yes"/>
      <point x="595.666015625" y="1097.25488281"/>
      <point x="593.32421875" y="1086.76757812"/>
      <point x="593.32421875" y="1077.48046875" type="curve" smooth="yes"/>
      <point x="593.32421875" y="1053.18652344"/>
      <point x="609.34765625" y="1037.09765625"/>
      <point x="629.762695312" y="1037.09765625" type="curve" smooth="yes"/>
      <point x="642.411132812" y="1037.09765625"/>
      <point x="656.74609375" y="1043.2734375"/>
      <point x="670.0" y="1057.5" type="curve" smooth="yes"/>
      <point x="929.0" y="1335.5" type="line" smooth="yes"/>
      <point x="963.452148438" y="1372.47851562"/>
      <point x="977.459960938" y="1409.6484375"/>
      <point x="977.459960938" y="1441.99121094" type="curve" smooth="yes"/>
      <point x="977.459960938" y="1498.67089844"/>
      <point x="934.435546875" y="1540.51953125"/>
      <point x="883.038085938" y="1540.51953125" type="curve" smooth="yes"/>
      <point x="840.556640625" y="1540.51953125"/>
      <point x="792.35546875" y="1511.93164062"/>
      <point x="758.0" y="1439.5" type="curve" smooth="yes"/>
    </contour>
    <contour>
      <point x="804.0" y="815.0" type="line"/>
      <point x="804.0" y="279.758789062" type="line"/>
      <point x="797.48828125" y="266.946289062" type="line" smooth="yes"/>
      <point x="754.364257812" y="182.091796875"/>
      <point x="637.961914062" y="127.0"/>
      <point x="526.0" y="127.0" type="curve" smooth="yes"/>
      <point x="427.25390625" y="127.0"/>
      <point x="330.0" y="184.517578125"/>
      <point x="330.0" y="316.243164062" type="curve" smooth="yes"/>
      <point x="330.0" y="815.0" type="line"/>
      <point x="168.0" y="815.0" type="line"/>
      <point x="168.0" y="294.849609375" type="line" smooth="yes"/>
      <point x="168.0" y="140.294921875"/>
      <point x="288.642578125" y="32.0"/>
      <point x="447.0" y="32.0" type="curve" smooth="yes"/>
      <point x="530.666015625" y="32.0"/>
      <point x="614.95703125" y="61.017578125"/>
      <point x="707.118164062" y="143.009765625" type="curve" smooth="yes"/>
      <point x="807.0" y="231.87109375" type="line"/>
      <point x="807.0" y="60.0" type="line"/>
      <point x="966.0" y="60.0" type="line"/>
      <point x="966.0" y="815.0" type="line"/>
    </contour>
  </outline>
</glyph>
<glyph name="thorn" format="1">
  <advance width="1074"/>
  <unicode hex="00FE"/>
  <outline>
    <contour>
      <point x="165.0" y="-417.0" type="line"/>
      <point x="293.0" y="-396.0" type="line"/>
      <point x="293.0" y="38.0" type="line"/>
      <point x="293.0" y="38.0"/>
      <point x="388.0" y="-16.0"/>
      <point x="567.0" y="-16.0" type="curve" smooth="yes"/>
      <point x="820.0" y="-16.0"/>
      <point x="966.0" y="171.0"/>
      <point x="966.0" y="410.0" type="curve" smooth="yes"/>
      <point x="966.0" y="654.0"/>
      <point x="805.0" y="839.0"/>
      <point x="572.0" y="839.0" type="curve" smooth="yes"/>
      <point x="459.0" y="839.0"/>
      <point x="363.0" y="806.0"/>
      <point x="293.0" y="745.0" type="curve"/>
      <point x="293" y="1241" type="line"/>
      <point x="165" y="1241" type="line"/>
    </contour>
    <contour>
      <point x="544.0" y="81.0" type="curve" smooth="yes"/>
      <point x="404.0" y="81.0"/>
      <point x="293.0" y="128.0"/>
      <point x="293.0" y="128.0" type="curve"/>
      <point x="293.0" y="649.0" type="line"/>
      <point x="305.0" y="661.0"/>
      <point x="411.0" y="743.0"/>
      <point x="539.0" y="743.0" type="curve" smooth="yes"/>
      <point x="731.0" y="743.0"/>
      <point x="839.0" y="623.0"/>
      <point x="839.0" y="412.0" type="curve" smooth="yes"/>
      <point x="839.0" y="241.0"/>
      <point x="757.0" y="81.0"/>
    </contour>
  </outline>
</glyph>
<glyph name="Aogonek" format="1">
  <advance width="1284"/>
  <unicode hex="0104"/>
  <outline>
    <contour>
      <point x="1050" y="2.099609375" type="line"/>
      <point x="941" y="-89.900390625"/>
      <point x="900" y="-163.900390625"/>
      <point x="900" y="-222.900390625" type="curve" smooth="yes"/>
      <point x="900" y="-296.900390625"/>
      <point x="965" y="-345.900390625"/>
      <point x="1040" y="-373.900390625" type="curve"/>
      <point x="1109" y="-315.900390625" type="line"/>
      <point x="1044" y="-260.900390625"/>
      <point x="1020" y="-211.900390625"/>
      <point x="1020" y="-167.900390625" type="curve" smooth="yes"/>
      <point x="1020" y="-106.900390625"/>
      <point x="1065" y="-53.900390625"/>
      <point x="1109" y="2.099609375" type="curve"/>
    </contour>
    <contour>
      <point x="322.021484375" y="60.0" type="line"/>
      <point x="443.021484375" y="350.0" type="line"/>
      <point x="841.612304688" y="350.0" type="line"/>
      <point x="973.612304688" y="60.0" type="line"/>
      <point x="1159.25292969" y="60.0" type="line"/>
      <point x="635.028320312" y="1168.48144531" type="line"/>
      <point x="130.250976562" y="60.0" type="line"/>
    </contour>
    <contour>
      <point x="634.375" y="897.525390625" type="line"/>
      <point x="838.448242188" y="414.0" type="line"/>
      <point x="448.685546875" y="414.0" type="line"/>
    </contour>
  </outline>
</glyph>
<glyph name="aogonek" format="1">
  <advance width="995"/>
  <unicode hex="0105"/>
  <outline>
    <contour>
      <point x="792" y="-7" type="line"/>
      <point x="683" y="-99"/>
      <point x="642" y="-173"/>
      <point x="642" y="-232" type="curve" smooth="yes"/>
      <point x="642" y="-306"/>
      <point x="707" y="-355"/>
      <point x="782" y="-383" type="curve"/>
      <point x="851" y="-325" type="line"/>
      <point x="786" y="-270"/>
      <point x="762" y="-221"/>
      <point x="762" y="-177" type="curve" smooth="yes"/>
      <point x="762" y="-116"/>
      <point x="807" y="-63"/>
      <point x="851" y="-7" type="curve"/>
    </contour>
    <contour>
      <point x="600.0" y="548.643554688" type="curve" smooth="yes"/>
      <point x="600" y="481.672851562" type="line"/>
      <point x="599" y="481.43359375" type="line"/>
      <point x="599" y="213.052734375" type="line"/>
      <point x="639.018554688" y="136.981445312" type="line" smooth="yes"/>
      <point x="676.389648438" y="65.9423828125"/>
      <point x="765.147460938" y="46.24609375"/>
      <point x="822.063476562" y="42.7265625" type="curve"/>
      <point x="860.6796875" y="150.201171875" type="line"/>
      <point x="787.748046875" y="170.407226562"/>
      <point x="749.74609375" y="237.358398438"/>
      <point x="750.0" y="320.672851562" type="curve" smooth="yes"/>
      <point x="750.0" y="601.54296875" type="line" smooth="yes"/>
      <point x="750.0" y="778.399414062"/>
      <point x="604.399414062" y="844.0"/>
      <point x="461.0" y="844.0" type="curve" smooth="yes"/>
      <point x="324.873046875" y="844.0"/>
      <point x="220.771484375" y="799.168945312"/>
      <point x="167.84765625" y="769.484375" type="curve"/>
      <point x="204.41796875" y="667.610351562" type="line"/>
      <point x="262.016601562" y="697.051757812"/>
      <point x="346.5546875" y="736.418945312"/>
      <point x="432.157226562" y="736.418945312" type="curve" smooth="yes"/>
      <point x="520.506835938" y="736.418945312"/>
      <point x="600.0" y="676.438476562"/>
    </contour>
    <contour>
      <point x="599.0" y="488.40625" type="line"/>
      <point x="599.0" y="481.43359375" type="line"/>
      <point x="534.237304688" y="465.989257812" type="line"/>
    </contour>
    <contour>
      <point x="534.237304688" y="465.989257812" type="curve"/>
      <point x="455.423828125" y="447.192382812" type="line" smooth="yes"/>
      <point x="229.825195312" y="394.515625"/>
      <point x="150.0" y="302.744140625"/>
      <point x="150.0" y="229.736328125" type="curve" smooth="yes"/>
      <point x="150.0" y="104.990234375"/>
      <point x="243.629882812" y="35.0"/>
      <point x="354.0" y="35.0" type="curve" smooth="yes"/>
      <point x="410.048828125" y="35.0"/>
      <point x="489.3828125" y="68.2119140625"/>
      <point x="527.309570312" y="127.624023438" type="curve"/>
      <point x="495.60546875" y="108.2421875"/>
      <point x="459.504882812" y="96.9150390625"/>
      <point x="423.4140625" y="96.9150390625" type="curve" smooth="yes"/>
      <point x="342.498046875" y="96.9150390625"/>
      <point x="299.0" y="171.993164062"/>
      <point x="299.0" y="243.0" type="curve" smooth="yes"/>
      <point x="299.0" y="335.756835938"/>
      <point x="388.763671875" y="415.6328125"/>
    </contour>
    <contour>
      <point x="599.0" y="195.248046875" type="line"/>
      <point x="585.67578125" y="178.751953125" type="line" smooth="yes"/>
      <point x="569.348632812" y="158.538085938"/>
      <point x="549.396484375" y="141.126953125"/>
      <point x="527.309570312" y="127.624023438" type="curve"/>
      <point x="529.336914062" y="130.80078125"/>
      <point x="531.24609375" y="134.051757812"/>
      <point x="533.02734375" y="137.376953125" type="curve" smooth="yes"/>
      <point x="586.396484375" y="237.01171875" type="line"/>
      <point x="599.0" y="213.052734375" type="line"/>
    </contour>
  </outline>
</glyph>
<glyph name="circumflex" format="1">
  <advance width="370"/>
  <unicode hex="02C6"/>
  <outline>
    <contour>
      <point x="28" y="86" type="curve" smooth="yes"/>
      <point x="35" y="86"/>
      <point x="42" y="90"/>
      <point x="49" y="98" type="curve" smooth="yes"/>
      <point x="242" y="326" type="line"/>
      <point x="435" y="98" type="line" smooth="yes"/>
      <point x="442" y="90"/>
      <point x="449" y="86"/>
      <point x="456" y="86" type="curve" smooth="yes"/>
      <point x="466" y="86"/>
      <point x="474" y="94"/>
      <point x="474" y="106" type="curve" smooth="yes"/>
      <point x="474" y="110"/>
      <point x="473" y="115"/>
      <point x="470" y="121" type="curve" smooth="yes"/>
      <point x="303" y="441" type="line" smooth="yes"/>
      <point x="292" y="462"/>
      <point x="267" y="481"/>
      <point x="242" y="481" type="curve" smooth="yes"/>
      <point x="217" y="481"/>
      <point x="193" y="463"/>
      <point x="181" y="441" type="curve" smooth="yes"/>
      <point x="14" y="121" type="line" smooth="yes"/>
      <point x="11" y="115"/>
      <point x="10" y="110"/>
      <point x="10" y="106" type="curve" smooth="yes"/>
      <point x="10" y="94"/>
      <point x="18" y="86"/>
    </contour>
  </outline>
</glyph>
<glyph name="breve" format="1">
  <advance width="953"/>
  <unicode hex="02D8"/>
  <outline>
    <contour>
      <point x="507" y="215" type="curve" smooth="yes"/>
      <point x="625" y="215"/>
      <point x="649" y="326"/>
      <point x="649" y="326" type="curve"/>
      <point x="727" y="308" type="line"/>
      <point x="727" y="308"/>
      <point x="705" y="128"/>
      <point x="507" y="128" type="curve" smooth="yes"/>
      <point x="309" y="128"/>
      <point x="287" y="308"/>
      <point x="287" y="308" type="curve"/>
      <point x="365" y="326" type="line"/>
      <point x="365" y="326"/>
      <point x="389" y="215"/>
    </contour>
  </outline>
</glyph>
<glyph name="mu" format="1">
  <advance width="1150.0"/>
  <unicode hex="03BC"/>
  <outline>
    <contour>
      <point x="149" y="299" type="line"/>
      <point x="149" y="-248" type="line"/>
      <point x="277" y="-248" type="line"/>
      <point x="277" y="299" type="line"/>
    </contour>
    <component base="u"/>
  </outline>
</glyph>
